<?xml version="1.0" encoding="UTF-8" standalone="no"?>
<svg
   width="1295.0841"
   height="925.06006"
   viewBox="0 0 1295.0841 925.06006"
   shape-rendering="crispEdges"
   version="1.1"
   id="svg51"
   sodipodi:docname="sky_7_5.svg"
   xml:space="preserve"
   inkscape:version="1.4.2 (f4327f4, 2025-05-13)"
   inkscape:export-filename="sky_7_5.png"
   inkscape:export-xdpi="225"
   inkscape:export-ydpi="225"
   xmlns:inkscape="http://www.inkscape.org/namespaces/inkscape"
   xmlns:sodipodi="http://sodipodi.sourceforge.net/DTD/sodipodi-0.dtd"
   xmlns:xlink="http://www.w3.org/1999/xlink"
   xmlns="http://www.w3.org/2000/svg"
   xmlns:svg="http://www.w3.org/2000/svg"><sodipodi:namedview
     id="namedview51"
     pagecolor="#505050"
     bordercolor="#eeeeee"
     borderopacity="1"
     inkscape:showpageshadow="0"
     inkscape:pageopacity="0"
     inkscape:pagecheckerboard="0"
     inkscape:deskcolor="#505050"
     inkscape:zoom="0.773"
     inkscape:cx="834.41139"
     inkscape:cy="668.17594"
     inkscape:window-width="1920"
     inkscape:window-height="991"
     inkscape:window-x="-9"
     inkscape:window-y="-9"
     inkscape:window-maximized="1"
     inkscape:current-layer="svg51" /><!-- Sky Bands --><rect
     width="1295.0841"
     height="185.01201"
     y="0"
     fill="#004650"
     id="rect1"
     x="0"
     style="stroke-width:1.85012" /><rect
     width="1295.0841"
     height="185.01201"
     y="185.01201"
     fill="#00556c"
     id="rect2"
     x="0"
     style="stroke-width:1.85012" /><rect
     width="1295.0841"
     height="185.01201"
     y="370.02402"
     fill="#006488"
     id="rect3"
     x="0"
     style="stroke-width:1.85012" /><rect
     width="1295.0841"
     height="185.01201"
     y="555.03601"
     fill="#0073a3"
     id="rect4"
     x="0"
     style="stroke-width:1.85012" /><rect
     width="1295.0841"
     height="185.01201"
     y="740.04803"
     fill="#0083bf"
     id="rect5"
     x="0"
     style="stroke-width:1.85012" /><!-- Dither Patterns --><defs
     id="defs33"><rect
       x="67.691978"
       y="521.41119"
       width="625.69342"
       height="418.04373"
       id="rect267" /><rect
       x="96.377747"
       y="336.02847"
       width="130.98318"
       height="28.460543"
       id="rect55" /><pattern
       inkscape:collect="always"
       xlink:href="#dither4"
       id="pattern55"
       patternTransform="scale(1.8501201)" /><pattern
       inkscape:collect="always"
       xlink:href="#dither3"
       id="pattern54"
       patternTransform="scale(1.8501201)" /><pattern
       inkscape:collect="always"
       xlink:href="#dither2"
       id="pattern53"
       patternTransform="scale(1.8501201)" /><pattern
       inkscape:collect="always"
       xlink:href="#dither1"
       id="pattern52"
       patternTransform="scale(1.8501201)" /><pattern
       id="dither1"
       width="16"
       height="16"
       patternUnits="userSpaceOnUse"><rect
         width="4"
         height="4"
         x="4"
         y="0"
         fill="#00556C"
         id="rect6" /><rect
         width="4"
         height="4"
         x="0"
         y="4"
         fill="#00556C"
         id="rect7" /><rect
         width="4"
         height="4"
         x="8"
         y="4"
         fill="#00556C"
         id="rect8" /><rect
         width="4"
         height="4"
         x="4"
         y="8"
         fill="#00556C"
         id="rect9" /><rect
         width="4"
         height="4"
         x="12"
         y="8"
         fill="#00556C"
         id="rect10" /><rect
         width="16"
         height="4"
         x="0"
         y="12"
         fill="#00556C"
         id="rect11" /><rect
         width="4"
         height="4"
         x="0"
         y="12"
         fill="#004650"
         id="rect12" /></pattern><pattern
       id="dither2"
       width="16"
       height="16"
       patternUnits="userSpaceOnUse"><rect
         width="4"
         height="4"
         x="4"
         y="0"
         fill="#006488"
         id="rect13" /><rect
         width="4"
         height="4"
         x="0"
         y="4"
         fill="#006488"
         id="rect14" /><rect
         width="4"
         height="4"
         x="8"
         y="4"
         fill="#006488"
         id="rect15" /><rect
         width="4"
         height="4"
         x="4"
         y="8"
         fill="#006488"
         id="rect16" /><rect
         width="4"
         height="4"
         x="12"
         y="8"
         fill="#006488"
         id="rect17" /><rect
         width="16"
         height="4"
         x="0"
         y="12"
         fill="#006488"
         id="rect18" /><rect
         width="4"
         height="4"
         x="0"
         y="12"
         fill="#00556C"
         id="rect19" /></pattern><pattern
       id="dither3"
       width="16"
       height="16"
       patternUnits="userSpaceOnUse"><rect
         width="4"
         height="4"
         x="4"
         y="0"
         fill="#0073A3"
         id="rect20" /><rect
         width="4"
         height="4"
         x="0"
         y="4"
         fill="#0073A3"
         id="rect21" /><rect
         width="4"
         height="4"
         x="8"
         y="4"
         fill="#0073A3"
         id="rect22" /><rect
         width="4"
         height="4"
         x="4"
         y="8"
         fill="#0073A3"
         id="rect23" /><rect
         width="4"
         height="4"
         x="12"
         y="8"
         fill="#0073A3"
         id="rect24" /><rect
         width="16"
         height="4"
         x="0"
         y="12"
         fill="#0073A3"
         id="rect25" /><rect
         width="4"
         height="4"
         x="0"
         y="12"
         fill="#006488"
         id="rect26" /></pattern><pattern
       id="dither4"
       width="16"
       height="16"
       patternUnits="userSpaceOnUse"><rect
         width="4"
         height="4"
         x="4"
         y="0"
         fill="#0083BF"
         id="rect27" /><rect
         width="4"
         height="4"
         x="0"
         y="4"
         fill="#0083BF"
         id="rect28" /><rect
         width="4"
         height="4"
         x="8"
         y="4"
         fill="#0083BF"
         id="rect29" /><rect
         width="4"
         height="4"
         x="4"
         y="8"
         fill="#0083BF"
         id="rect30" /><rect
         width="4"
         height="4"
         x="12"
         y="8"
         fill="#0083BF"
         id="rect31" /><rect
         width="16"
         height="4"
         x="0"
         y="12"
         fill="#0083BF"
         id="rect32" /><rect
         width="4"
         height="4"
         x="0"
         y="12"
         fill="#0073A3"
         id="rect33" /></pattern><style
       id="style2">.cls-1{fill:#b79542}.cls-2{fill:#2f1b72}.cls-3{fill:#fdfcfb}.cls-4{fill:#d9342d}.cls-5{fill:#fff}.cls-6{fill:#fffdfd}</style><rect
       x="-1957.1421"
       y="-761.90948"
       width="1256.8427"
       height="1111.0323"
       id="rect6-1" /><rect
       x="27.59104"
       y="194.58945"
       width="781.26208"
       height="284.62335"
       id="rect1-3" /><rect
       x="-1466.6816"
       y="-570.69885"
       width="2019.9546"
       height="656.37634"
       id="rect5-59" /><rect
       x="-1466.6816"
       y="-570.69885"
       width="2019.9546"
       height="656.37634"
       id="rect8-84" /><rect
       x="-1466.6816"
       y="-570.69885"
       width="2019.9546"
       height="656.37634"
       id="rect5-5-0" /><rect
       x="96.377747"
       y="336.02847"
       width="130.98318"
       height="28.460543"
       id="rect55-0" /><rect
       x="67.691978"
       y="521.41119"
       width="625.69342"
       height="418.04373"
       id="rect267-2" /><rect
       x="96.377747"
       y="336.02847"
       width="307.41714"
       height="107.70429"
       id="rect55-0-3" /><rect
       x="96.377747"
       y="336.02847"
       width="307.41714"
       height="107.70429"
       id="rect55-0-3-5" /></defs><rect
     width="1295.0841"
     height="29.601921"
     y="170.21104"
     fill="url(#dither1)"
     id="rect34"
     x="0"
     style="fill:url(#pattern52);stroke-width:1.85012" /><rect
     width="1295.0841"
     height="29.601921"
     y="355.22305"
     fill="url(#dither2)"
     id="rect35"
     x="0"
     style="fill:url(#pattern53);stroke-width:1.85012" /><rect
     width="1295.0841"
     height="29.601921"
     y="540.23505"
     fill="url(#dither3)"
     id="rect36"
     x="0"
     style="fill:url(#pattern54);stroke-width:1.85012" /><rect
     width="1295.0841"
     height="29.601921"
     y="725.24707"
     fill="url(#dither4)"
     id="rect37"
     x="0"
     style="fill:url(#pattern55);stroke-width:1.85012" /><!-- Clouds --><!-- Cloud 1 at 15% depth --><g
     transform="matrix(7.4004805,0,0,7.4004805,185.01201,129.50841)"
     opacity="0.4"
     id="g40"><rect
       x="8"
       y="2"
       width="12"
       height="2"
       fill="#ffffff"
       id="rect38" /><rect
       x="4"
       y="4"
       width="20"
       height="2"
       fill="#ffffff"
       id="rect39" /><rect
       x="2"
       y="6"
       width="26"
       height="4"
       fill="#ffffff"
       id="rect40" /></g><!-- Cloud 2 at 35% depth --><g
     transform="matrix(5.5503604,0,0,5.5503604,832.55406,296.01922)"
     opacity="0.7"
     id="g44"><rect
       x="10"
       y="2"
       width="6"
       height="2"
       fill="#ffffff"
       id="rect41" /><rect
       x="6"
       y="4"
       width="14"
       height="2"
       fill="#ffffff"
       id="rect42" /><rect
       x="4"
       y="6"
       width="18"
       height="2"
       fill="#ffffff"
       id="rect43" /><rect
       x="2"
       y="8"
       width="20"
       height="4"
       fill="#ffffff"
       id="rect44" /></g><!-- Cloud 1 at 65% depth --><g
     transform="matrix(6.4754204,0,0,6.4754204,370.02402,592.03844)"
     opacity="0.6"
     id="g47"><rect
       x="8"
       y="2"
       width="12"
       height="2"
       fill="#ffffff"
       id="rect45" /><rect
       x="4"
       y="4"
       width="20"
       height="2"
       fill="#ffffff"
       id="rect46" /><rect
       x="2"
       y="6"
       width="26"
       height="4"
       fill="#ffffff"
       id="rect47" /></g><!-- Cloud 2 at 85% depth --><g
     transform="matrix(4.6253003,0,0,4.6253003,925.06006,777.05045)"
     opacity="0.3"
     id="g51"><rect
       x="10"
       y="2"
       width="6"
       height="2"
       fill="#ffffff"
       id="rect48" /><rect
       x="6"
       y="4"
       width="14"
       height="2"
       fill="#ffffff"
       id="rect49" /><rect
       x="4"
       y="6"
       width="18"
       height="2"
       fill="#ffffff"
       id="rect50" /><rect
       x="2"
       y="8"
       width="20"
       height="4"
       fill="#ffffff"
       id="rect51" /></g><g
     id="g58"
     transform="matrix(0.81027195,0,0,0.81027195,30.538478,0)"><path
       id="rect52"
       style="fill:#aad4e1;fill-rule:evenodd;stroke-width:37.8834;paint-order:markers fill stroke;fill-opacity:1"
       d="M 78.984229,0 V 456.88224 L 160.95922,586.39115 242.9342,456.88224 V 0 Z" /><g
       id="g55"
       transform="matrix(0.5185577,0,0,0.5185577,99.140655,22.455368)"><path
         d="m 28.171,0 h 184.18 v 216.377 a 25.93,25.93 0 0 1 -6.03,17.92 27.178,27.178 0 0 1 -21.427,10.04 c -14.32,0.11 -28.69,0 -43.01,0.059 a 24.63,24.63 0 0 0 -19.788,11.89 c -0.9,1.81 -1.52,3.72 -2.37,5.53 -1.97,-6.88 -6.879,-12.91 -13.588,-15.62 -4.247,-1.919 -9.13,-1.86 -13.7,-1.8 H 54.721 c -8.876,0.204 -17.47,-4.68 -22.21,-12.069 a 25.768,25.768 0 0 1 -4.34,-15.39 q -0.093,-83.469 0,-166.99 c 0,-16.688 -0.11,-33.318 0,-49.947 z"
         class="cls-1"
         id="path3204"
         style="fill:#b79542;stroke-width:0.849305" /><path
         d="m 33.242,3.95 q 57.175,-0.094 114.444,0 C 167.534,4 187.323,3.83 207.222,4 q -0.085,55.995 0,111.964 c -13.589,0.17 -27.229,0.06 -40.869,0.119 -44.376,-0.06 -88.684,0.11 -133.111,-0.06 z"
         class="cls-2"
         id="path3206"
         style="fill:#2f1b72;stroke-width:0.849305" /><path
         d="m 171.653,49.667 c 1.18,0.56 2.361,1.02 3.49,1.699 a 14.15,14.15 0 0 1 1.351,2.99 c 0.459,1.24 -0.56,2.31 -1.52,2.76 1.24,-1.911 -0.39,-3.66 -1.24,-5.41 -0.68,0.06 -1.35,0.11 -2.03,0.11 0,-0.67 0,-1.41 -0.051,-2.14 z"
         class="cls-2"
         id="path3226"
         style="fill:#2f1b72;stroke-width:0.849305" /><path
         d="m 93.228,54.797 c 1.02,-0.68 2.03,-1.35 3.1,-2.09 3.397,3.398 6.795,6.88 10.192,10.32 -0.68,1.02 -1.36,2.03 -2.03,3.1 -3.762,-3.771 -7.593,-7.525 -11.262,-11.33 z"
         class="cls-3"
         id="path3228"
         style="fill:#fdfcfb;stroke-width:0.849305" /><path
         d="m 144.025,52.827 a 22.532,22.532 0 0 1 2.09,2.03 c -3.56,3.89 -7.5,7.499 -11.169,11.33 -0.73,-1.02 -1.41,-2.09 -2.08,-3.211 q 5.656,-5.087 11.16,-10.15 z"
         class="cls-3"
         id="path3230"
         style="fill:#fdfcfb;stroke-width:0.849305" /><path
         d="m 84.064,77.287 c 5.41,0 10.94,0 16.35,-0.06 0.059,1.011 0.059,2.03 0.11,3.1 -5.461,0.11 -10.93,-0.06 -16.46,0.06 a 26.957,26.957 0 0 0 0,-3.1 z"
         class="cls-3"
         id="path3234"
         style="fill:#fdfcfb;stroke-width:0.849305" /><path
         d="m 139.906,77.287 c 5.19,-0.06 10.32,-0.06 15.508,0 v 3.1 h -15.508 z"
         class="cls-3"
         id="path3236"
         style="fill:#fdfcfb;stroke-width:0.849305" /><path
         d="m 104.388,91.445 c 0.68,0.73 1.41,1.41 2.149,2.14 -3.5,3.66 -6.795,7.5 -10.192,11.22 -1.01,-0.68 -2.03,-1.351 -3.16,-2.03 3.619,-3.831 7.602,-7.44 11.203,-11.33 z"
         class="cls-3"
         id="path3238"
         style="fill:#fdfcfb;stroke-width:0.849305" /><path
         d="m 132.865,93.525 c 0.671,-0.67 1.41,-1.35 2.081,-2.03 3.78,3.67 7.44,7.5 11.22,11.169 -0.672,0.79 -1.351,1.52 -2.081,2.25 -3.729,-3.847 -7.5,-7.61 -11.22,-11.389 z"
         class="cls-3"
         id="path3240"
         style="fill:#fdfcfb;stroke-width:0.849305" /><path
         d="m 118.546,102.834 c 1.07,-0.06 2.14,-0.06 3.21,-0.06 v 11.28 c -1.07,0 -2.14,0 -3.159,-0.06 0,-3.72 0,-7.44 -0.051,-11.16 z"
         class="cls-3"
         id="path3242"
         style="fill:#fdfcfb;stroke-width:0.849305" /><path
         d="m 33.242,120.024 c 27.568,-0.051 55.086,0 82.654,0 0.62,0.11 2.03,-0.28 1.699,0.85 v 126.333 a 29.19,29.19 0 0 0 -12.46,-6.794 c -4.739,-1.35 -9.758,-0.9 -14.659,-0.96 H 54.22 a 21.233,21.233 0 0 1 -15.56,-6.87 22.218,22.218 0 0 1 -5.418,-14.66 z"
         class="cls-2"
         id="path3244"
         style="fill:#2f1b72;stroke-width:0.849305" /><path
         d="m 122.826,120.024 c 28.079,0 56.267,-0.11 84.336,0.06 -0.05,32.587 0,65.226 -0.05,97.814 a 21.114,21.114 0 0 1 -6.65,15.448 23.118,23.118 0 0 1 -15.11,6.03 c -14.659,0.052 -29.377,-0.059 -44.036,0.052 -6.88,0.17 -13.42,3.27 -18.49,7.839 z"
         class="cls-2"
         id="path3246"
         style="fill:#2f1b72;stroke-width:0.849305" /><path
         d="m 72.93,138.437 6.09,22.158 9.172,-17.555 1.146,22.574 9.08,-10.718 c 0,0 -4.247,22.464 -8.12,29.097 -3.04,5.946 -7.27,12.23 -14.32,13.75 0.06,2.37 0,4.63 0.06,6.99 -1.698,0 -3.397,0.06 -5.096,0 0,-2.42 0.06,-4.73 -0.11,-7.16 -4.9,-0.848 -8.57,-4.62 -11.27,-8.492 -4.46,-6.88 -6.94,-14.71 -8.74,-22.66 l -2.429,-11.847 9.25,11.108 c 0,0 1.12,-19.678 1.07,-23.058 1.18,1.58 9.02,18.039 9.02,18.039 z"
         class="cls-1"
         id="path3248"
         style="fill:#b79542;stroke-width:0.849305" /><path
         d="m 73.023,148.102 c 0.765,1.087 4.62,19.22 5.64,29.029 0.05,1.359 0.56,2.939 -0.4,4.12 -1.919,2.93 -3.49,6.089 -5.359,9.019 a 46.941,46.941 0 0 0 -4.39,-8.91 c -1.02,-1.35 -0.51,-3.15 -0.34,-4.62 0.756,-7.61 4.85,-28.638 4.85,-28.638 z"
         class="cls-3"
         id="path3250"
         style="fill:#fdfcfb;stroke-width:0.849305" /><path
         d="m 60.284,150.87 6.361,14.031 c 0,0 -0.739,7.89 -1.07,11.84 -1.81,-2.65 -3.5,-5.47 -5.869,-7.644 0.034,-0.34 0.578,-18.226 0.578,-18.226 z"
         class="cls-3"
         id="path3252"
         style="fill:#fdfcfb;stroke-width:0.849305" /><path
         d="m 86.238,151.176 0.85,17.708 a 79.053,79.053 0 0 0 -5.75,8 c -0.17,-3.49 -0.909,-6.879 -1.079,-10.37 -0.28,-2.513 5.98,-15.338 5.98,-15.338 z"
         class="cls-3"
         id="path3254"
         style="fill:#fdfcfb;stroke-width:0.849305" /><path
         d="m 150.845,158.361 c 8.74,-6.879 22.55,-5.945 30.448,1.92 6.59,5.69 13.19,11.33 19.788,16.986 0.85,0.79 2.14,1.079 2.76,2.03 -2.819,1.47 -4.96,3.949 -7.499,5.868 -5.47,4.85 -11.109,9.47 -16.578,14.32 -4.34,3.72 -10.26,5.35 -15.95,5.096 -5.945,0.05 -11.729,-2.65 -16.18,-6.49 -5.095,-4.39 -10.318,-8.79 -15.448,-13.24 -2.14,-1.92 -4.45,-3.61 -6.37,-5.758 2.7,-2.65 5.81,-4.79 8.74,-7.27 5.35,-4.62 10.938,-8.91 16.29,-13.53 z"
         class="cls-1"
         id="path3256"
         style="fill:#b79542;stroke-width:0.849305" /><path
         d="m 154.225,159.67 a 19.585,19.585 0 0 1 19.118,-0.74 c 3.1,1.47 5.41,4.06 8.06,6.15 5.86,4.68 11.729,9.47 17.649,14.09 -6.039,5.418 -12.239,10.488 -18.38,15.729 a 25.3,25.3 0 0 1 -15.788,6.794 c -6.31,0.11 -12.349,-2.88 -16.859,-7.16 -5.945,-5.096 -11.78,-10.26 -17.928,-15.168 a 12.969,12.969 0 0 1 2.2,-2.03 c 5.749,-4.56 11.329,-9.19 17.028,-13.75 a 36.936,36.936 0 0 1 4.9,-3.916 z"
         class="cls-3"
         id="path3258"
         style="fill:#fdfcfb;stroke-width:0.849305" /><path
         d="m 161.504,162.14 c 9.19,-1.808 18.6,5.41 20.12,14.439 1.698,9.342 -6.03,18.889 -15.39,19.848 a 15.763,15.763 0 0 1 -13.079,-4.739 18.073,18.073 0 0 1 -4.06,-18.43 c 1.98,-5.46 6.71,-9.97 12.409,-11.1 z"
         class="cls-2"
         id="path3260"
         style="fill:#2f1b72;stroke-width:0.849305" /><path
         d="m 94.188,164.052 c -1.699,7.389 -3.95,14.778 -7.78,21.368 -2.76,4.51 -6.48,9.343 -12.068,9.98 a 8.867,8.867 0 0 0 0.96,-2.03 c 1.808,-6.09 5.367,-11.39 8.764,-16.715 a 116.678,116.678 0 0 1 10.192,-12.629 z"
         class="cls-3"
         id="path3262"
         style="fill:#fdfcfb;stroke-width:0.849305" /><path
         d="m 52.75,164.34 a 156.552,156.552 0 0 1 16.409,22.83 c 1.58,2.59 2.42,5.529 3.55,8.34 -5.36,-0.73 -9.13,-5.01 -11.84,-9.342 -4,-6.659 -6.429,-14.21 -8.119,-21.819 z"
         class="cls-3"
         id="path3264"
         style="fill:#fdfcfb;stroke-width:0.849305" /><path
         d="m 49.37,209.838 a 15.38,15.38 0 0 1 5.58,1.35 5.291,5.291 0 0 0 5.02,0.17 c 2.93,-1.52 6.59,-2.09 9.69,-0.569 a 7.644,7.644 0 0 0 4.68,1.02 c 1.41,-0.06 2.599,-0.96 3.89,-1.41 a 12.323,12.323 0 0 1 4.849,-0.51 9.495,9.495 0 0 1 1.979,0.399 c 1.01,0.39 1.29,0.73 2.25,1.07 a 7.516,7.516 0 0 0 2.37,0.28 10.005,10.005 0 0 0 3.78,-0.79 15.364,15.364 0 0 1 3.89,-1.13 c 0,0.96 0.05,2.03 0.05,3.05 a 2.87,2.87 0 0 0 -1.35,0.11 8.408,8.408 0 0 0 -1.3,0.45 19.84,19.84 0 0 1 -3.04,1.3 6.743,6.743 0 0 1 -3.72,0.05 13.69,13.69 0 0 1 -2.548,-0.9 11.228,11.228 0 0 1 -1.699,-0.9 5.869,5.869 0 0 0 -2.14,-0.17 5.673,5.673 0 0 0 -2.09,0.561 10.701,10.701 0 0 1 -5.638,1.605 18.243,18.243 0 0 1 -3.814,-0.85 c -1.24,-0.45 -1.18,-0.62 -2.2,-0.9 -0.849,-0.229 -2.76,-0.79 -4.06,-0.059 a 9.759,9.759 0 0 1 -1.07,0.62 l -1.01,0.51 a 10.268,10.268 0 0 1 -2.599,0.62 14.192,14.192 0 0 1 -3.89,-0.17 c -2.03,-0.28 -3.61,-1.86 -5.75,-1.699 a 30.303,30.303 0 0 1 -0.11,-3.108 z"
         class="cls-3"
         id="path3270"
         style="fill:#fdfcfb;stroke-width:0.849305" /><path
         d="m 1.3,235.945 c 0,0 8.569,1.206 11.278,1.8 3.627,0.79 7.236,1.7 10.778,2.778 4.17,1.308 8.57,3.185 11.253,6.795 a 6.557,6.557 0 0 1 1.368,4.569 c -0.213,1.928 -1.436,2.607 -2.548,3.856 1.817,0.849 4.246,1.087 6.234,1.537 q 3.21,0.722 6.42,1.418 6.43,1.376 12.91,2.548 c 8.629,1.563 17.309,2.845 26.03,3.788 q 12.027,1.3 24.13,1.699 c 4.68,-0.11 9.418,0.28 14.098,0.11 4.68,-0.17 9.47,0.17 14.2,-0.39 a 359.817,359.817 0 0 0 59.537,-8.23 c 3.499,-0.73 6.88,-1.75 10.43,-2.43 -0.68,0.137 -2.04,-1.86 -2.336,-2.377 a 5.945,5.945 0 0 1 -0.722,-3.635 c 0.348,-2.472 2.548,-4.247 4.535,-5.538 4.298,-2.845 9.13,-4.17 14.099,-5.308 4.968,-1.138 10.302,-1.835 15.431,-2.752 -0.849,0.85 -0.535,2.76 -0.9,3.83 a 30.575,30.575 0 0 1 -6.149,10.481 29.377,29.377 0 0 1 -8.06,6.149 c 2.03,0.62 9.47,3.21 12.8,10.43 a 15.126,15.126 0 0 1 1.46,4.908 177.573,177.573 0 0 0 -18.379,5.011 c -1.63,0.57 -6.14,1.699 -7.83,2.09 0,3.329 0,6.71 0.05,10.03 -2.36,0.34 -4.62,0.96 -6.93,1.47 A 394.553,394.553 0 0 1 137.001,300 h -34.753 a 400.142,400.142 0 0 1 -71.69,-10.506 c -0.739,-0.17 -1.529,-0.28 -2.26,-0.4 -0.05,-3.32 -0.05,-6.7 0,-10.03 A 110.987,110.987 0 0 0 9.41,273.366 c -3.261,-0.671 -6.48,-1.18 -9.41,-1.52 0.144,0 3.686,-5.784 4.153,-6.345 a 32.843,32.843 0 0 1 11.687,-8.875 c -5.793,-4 -11.653,-9.665 -13.92,-16.502 A 31.11,31.11 0 0 1 1.3,235.945 Z"
         class="cls-1"
         id="path3272"
         style="fill:#b79542;stroke-width:0.849305" /><path
         d="m 5.002,239.597 a 78.985,78.985 0 0 1 15.288,3.27 c 4.56,1.86 9.52,3.397 12.85,7.22 0.23,2.93 -2.87,4 -5.096,4.849 -0.17,6.99 0,13.92 -0.06,20.97 a 55.96,55.96 0 0 1 -5.945,-2.03 c -5.58,-2.03 -11.33,-3.78 -17.3,-3.89 a 28.299,28.299 0 0 1 6.871,-7.644 c 3.78,-2.82 9.53,-5.096 9.342,-5.52 -0.186,-0.425 -6.71,-4.63 -9.979,-8.07 a 28.995,28.995 0 0 1 -5.97,-9.155 z"
         class="cls-4"
         id="path3274"
         style="fill:#d9342d;stroke-width:0.849305" /><path
         d="m 220.19,242.901 a 84.684,84.684 0 0 1 14.38,-3.27 35.543,35.543 0 0 1 -6.26,9.589 34.312,34.312 0 0 1 -10.769,8 0.051,0.051 0 0 1 0.051,0.06 h -0.051 a 26.965,26.965 0 0 1 10.6,5.41 26.651,26.651 0 0 1 6.2,7.389 c -0.468,-0.85 -7.245,1.138 -8.154,1.35 -5.036,1.164 -9.759,3.109 -14.676,4.62 -0.51,-6.93 0.05,-13.979 -0.289,-20.969 a 25.088,25.088 0 0 0 -2.267,-1.393 4.043,4.043 0 0 1 -1.7,-2.344 c -0.28,-2.25 3.339,-4 4.884,-4.917 a 41.132,41.132 0 0 1 8.052,-3.525 z"
         class="cls-4"
         id="path3276"
         style="fill:#d9342d;stroke-width:0.849305" /><path
         d="m 31.212,264.805 c 0.06,-2.03 -0.17,-4.06 0.23,-6.09 a 383.325,383.325 0 0 0 65.846,10.43 366.594,366.594 0 0 0 44.478,0.05 c 22.388,-1.35 44.487,-5.095 66.246,-10.37 0.23,9.47 -0.11,18.94 0.17,28.41 a 446.072,446.072 0 0 1 -71.257,9.81 c -5.419,0.288 -10.77,0.17 -16.188,0.458 -30.1,0 -60.097,-4.06 -89.525,-10.192 -0.11,-7.516 0,-15.015 0,-22.506 z"
         class="cls-4"
         id="path3278"
         style="fill:#d9342d;stroke-width:0.849305" /><path
         d="m 133.986,285.095 a 19.755,19.755 0 0 1 4.799,-2.99 53.396,53.396 0 0 1 0.17,6.71 c -1.3,-1.631 -3.16,-2.65 -4.969,-3.72 z"
         class="cls-4"
         id="path3288"
         style="fill:#d9342d;stroke-width:0.849305" /><path
         d="m 100.447,284.305 c 1.58,-0.62 3.16,-2.14 4.9,-1.75 0.12,2.03 -0.05,4.179 0.12,6.209 -1.58,-1.529 -3.33,-3.05 -5.02,-4.46 z"
         class="cls-4"
         id="path3290"
         style="fill:#d9342d;stroke-width:0.849305" /><path
         d="m 112.507,48.147 c 1.3,-1.3 2.65,-2.71 4.01,-4.17 2.649,-2.82 5.01,-5.699 7.1,-8.349 -0.45,0.57 0,3.05 0,3.814 a 48.928,48.928 0 0 0 0.152,5.231 43.824,43.824 0 0 0 3.899,13.224 c 0.917,2.08 1.902,4.136 2.862,6.209 1.333,2.879 2.548,5.333 2.65,8.569 0.195,7.805 -6.32,12.977 -9.164,19.653 -1.41,3.312 -0.935,6.336 -0.91,9.792 -4.246,-1.027 -7.974,-4.628 -10.633,-7.958 a 21.31,21.31 0 0 1 -4.807,-12.74 c 0,-3.753 1.478,-7.244 1.784,-10.938 a 40.767,40.767 0 0 0 -0.654,-9.801 c -0.747,-4.841 0.17,-8.994 3.711,-12.536 z"
         class="cls-1"
         id="path3224"
         style="fill:#b79542;stroke-width:0.849305" /><path
         d="m 113.238,53.566 0.187,-0.467 c 1.758,-4.247 5.231,-7.576 8.272,-10.931 -0.671,0.747 -0.518,3.202 -0.51,4.128 a 20.562,20.562 0 0 0 0.637,4.773 c 1.206,4.892 3.797,9.257 5.945,13.767 2.15,4.51 3.585,9.538 0.969,14.209 -3.287,5.869 -8.85,11.627 -8.111,18.88 a 31.9,31.9 0 0 1 -4.34,-4.247 38.915,38.915 0 0 1 -2.548,-3.669 15.619,15.619 0 0 1 -2.548,-9.079 c 0.161,-4.569 1.936,-8.934 1.699,-13.53 -0.238,-4.594 -1.317,-9.325 0.348,-13.834 z"
         class="cls-4"
         id="path3224-2"
         style="fill:#d9342d;stroke-width:0.849305" /><path
         d="m 49.03,202.449 a 16,16 0 0 1 5.58,1.384 5.266,5.266 0 0 0 5.02,0.17 c 2.99,-1.52 6.599,-2.14 9.64,-0.51 a 8.536,8.536 0 0 0 4.738,1.02 c 1.461,-0.11 2.548,-1.02 3.89,-1.41 a 12.213,12.213 0 0 1 4.841,-0.51 7.27,7.27 0 0 1 1.92,0.45 c 1.019,0.34 1.3,0.74 2.2,1.07 a 6.005,6.005 0 0 0 2.369,0.34 10.76,10.76 0 0 0 3.83,-0.85 14.77,14.77 0 0 1 4.01,-1.129 c 0,1.011 0,2.03 0.05,3.04 a 5.877,5.877 0 0 0 -1.35,0.12 7.576,7.576 0 0 0 -1.3,0.45 c -1.01,0.5 -2.37,1.07 -3.04,1.35 a 6.947,6.947 0 0 1 -3.72,0.11 8.493,8.493 0 0 1 -2.548,-0.96 c -0.79,-0.33 -1.3,-0.67 -1.699,-0.848 a 5.758,5.758 0 0 0 -2.14,-0.17 9.877,9.877 0 0 0 -2.149,0.51 10.362,10.362 0 0 1 -5.69,1.58 11.984,11.984 0 0 1 -3.78,-0.96 c -1.18,-0.45 -1.18,-0.57 -2.2,-0.96 -0.849,-0.23 -2.76,-0.73 -4.059,-0.06 a 9.274,9.274 0 0 1 -1.121,0.57 c -0.06,0 -0.569,0.28 -1.02,0.5 a 15.228,15.228 0 0 1 -2.547,0.68 15.135,15.135 0 0 1 -4.009,-0.17 c -2.03,-0.34 -3.6,-1.86 -5.75,-1.699 0.034,-1.078 0.034,-2.097 0.034,-3.108 z"
         class="cls-3"
         id="path3270-2"
         style="fill:#fdfcfb;stroke-width:0.849305" /><path
         id="path39"
         d="m 176.494,172.51 h -3.397 v 18.949 L 172.477,191 c -0.85,-3.1 -2.25,-5.41 -4.4,-6.794 a 5.453,5.453 0 0 1 -1.97,1.8 5.886,5.886 0 0 1 -2.88,0.68 4.765,4.765 0 0 1 -1.86,-0.45 5.945,5.945 0 0 1 -1.859,-1.07 c -0.56,-0.51 -1.18,-1.02 -1.8,-1.7 a 18.048,18.048 0 0 1 -1.58,-2.199 17.36,17.36 0 0 1 -1.41,-3.499 42.465,42.465 0 0 1 -0.85,-4.247 l 1.07,0.45 a 30.753,30.753 0 0 0 1.181,4.06 14.107,14.107 0 0 0 1.81,3.151 8.374,8.374 0 0 0 2.31,2.03 4.824,4.824 0 0 0 2.547,0.739 c 2.149,0 3.44,-0.57 4.247,-1.86 a 5.164,5.164 0 0 0 0.68,-2.65 2.854,2.854 0 0 0 -0.111,-0.96 4.026,4.026 0 0 0 -0.68,-1.41 6.25,6.25 0 0 0 -0.73,-0.96 3.72,3.72 0 0 0 -1.13,-0.62 1.826,1.826 0 0 0 -1.07,0.17 2.183,2.183 0 0 1 0.62,1.41 2.021,2.021 0 0 1 -0.34,1.13 3.78,3.78 0 0 1 -0.9,0.951 2.438,2.438 0 0 1 -2.14,0.51 2.692,2.692 0 0 1 -1.868,-1.18 2.896,2.896 0 0 1 -0.332,-1.36 2.454,2.454 0 0 1 0.45,-1.4 4.4,4.4 0 0 1 0.96,-1.13 5.512,5.512 0 0 1 3.04,-1.07 6.794,6.794 0 0 1 1.47,0.22 6.523,6.523 0 0 1 1.91,1.13 7.253,7.253 0 0 1 1.64,1.8 6.327,6.327 0 0 1 0.85,3.398 9.478,9.478 0 0 1 -0.45,2.76 l 2.369,2.14 v -12.349 h -17.776 l -1.8,-1.74 h 22.93 z"
         class="cls-5"
         style="fill:#ffffff;stroke-width:0.849305" /><path
         id="path41"
         d="m 50.27,271.506 c -0.849,3.61 -1.3,5.418 -2.2,8.968 a 1.52,1.52 0 0 0 1.173,1.181 3.644,3.644 0 0 0 2.87,-0.85 5.02,5.02 0 0 0 1.92,-2.369 1.885,1.885 0 0 1 -0.51,-0.06 5.529,5.529 0 0 1 -0.56,-0.22 3.5,3.5 0 0 1 -0.51,-0.45 0.85,0.85 0 0 1 -0.28,-0.62 1.316,1.316 0 0 1 0,-0.68 1.486,1.486 0 0 1 0.79,-1.13 1.885,1.885 0 0 1 1.35,-0.22 2.268,2.268 0 0 1 1.699,1.52 c 0.06,0.34 0.17,0.68 0.288,1.13 a 7.474,7.474 0 0 1 -0.059,1.18 5.41,5.41 0 0 1 -2.548,3.397 5.096,5.096 0 0 1 -4.246,1.07 2.837,2.837 0 0 1 -1.97,-1.29 3.66,3.66 0 0 1 -0.51,-2.37 c 0.849,-3.44 1.299,-5.096 2.148,-8.629 a 15.347,15.347 0 0 1 -2.03,-0.501 9.674,9.674 0 0 1 -0.908,-1.64 c 4.739,1.181 7.108,1.75 11.89,2.82 0.45,0.68 0.68,0.9 1.13,1.631 -3.686,-0.628 -5.487,-1.019 -8.927,-1.868 z"
         class="cls-6"
         style="fill:#fffdfd;stroke-width:0.849305" /><path
         id="path43"
         d="m 61.66,273.824 c -1.07,5.41 -1.58,8.111 -2.71,13.59 a 14.591,14.591 0 0 1 -1.13,-1.631 c 0.79,-3.89 1.19,-5.75 1.98,-9.64 a 3.711,3.711 0 0 0 0,-1.07 1.826,1.826 0 0 0 -0.51,-0.909 c -0.28,-0.28 -0.51,-0.5 -0.85,-0.79 a 6.132,6.132 0 0 0 -1.129,-0.45 15.415,15.415 0 0 1 -1.07,-1.63 6.48,6.48 0 0 0 0.79,0.11 5.393,5.393 0 0 0 1.07,0.17 3.397,3.397 0 0 1 1.46,0.96 3.525,3.525 0 0 1 0.79,1.919 c 0.06,-0.23 0.06,-0.57 0.17,-1.02 0.11,-0.45 0.06,-0.849 0.17,-1.35 a 6.064,6.064 0 0 0 0.17,-1.359 3.007,3.007 0 0 1 0.17,-0.9 2.106,2.106 0 0 1 0.45,0.51 9.928,9.928 0 0 0 0.06,1.24 3.219,3.219 0 0 0 0.28,0.9 c 0.11,0 0.17,0.06 0.28,0.06 0.11,0 0.23,0.059 0.34,0.059 0.17,0.28 0.34,0.56 0.51,0.9 l 0.33,0.671 a 4.586,4.586 0 0 0 -0.95,-0.22 3.066,3.066 0 0 1 -0.671,-0.12 z"
         class="cls-6"
         style="fill:#fffdfd;stroke-width:0.849305" /><path
         id="path45"
         d="m 73.329,276.185 c -0.11,0.45 -0.11,0.57 -0.17,0.91 a 4.459,4.459 0 0 1 3.55,2.48 5.724,5.724 0 0 1 0.85,3.889 5.554,5.554 0 0 1 -0.34,0.9 6.667,6.667 0 0 1 -0.62,0.79 1.767,1.767 0 0 1 -0.73,0.45 5.206,5.206 0 0 1 -0.96,0.06 0.892,0.892 0 0 1 -0.68,-0.289 0.781,0.781 0 0 1 -0.51,-0.45 1.121,1.121 0 0 1 -0.33,-0.56 2.828,2.828 0 0 1 -0.06,-0.68 1.316,1.316 0 0 1 0.56,-1.01 1.699,1.699 0 0 1 1.3,-0.281 1.588,1.588 0 0 1 0.79,0.331 c 0.17,0.17 0.45,0.34 0.51,0.62 0.05,-0.05 0.05,-0.17 0.17,-0.28 a 3.338,3.338 0 0 0 -0.79,-2.59 4.484,4.484 0 0 0 -3.05,-1.64 c -0.67,4.4 -1.01,6.54 -1.698,10.94 a 0.289,0.289 0 0 1 -0.221,-0.17 0.297,0.297 0 0 1 -0.17,-0.28 14.982,14.982 0 0 0 -0.85,-2.37 11.89,11.89 0 0 0 -1.18,-2.03 7.644,7.644 0 0 0 -3.89,-2.82 c -0.569,-1.01 -0.908,-1.63 -1.528,-2.59 a 28.197,28.197 0 0 1 8.629,-2.59 6.565,6.565 0 0 1 0.17,-1.07 c -3.55,-0.62 -5.36,-0.85 -8.8,-1.64 -0.22,-0.34 -0.5,-0.68 -0.73,-1.01 a 3.244,3.244 0 0 0 -0.39,-0.57 c 2.82,0.57 5.69,1.13 8.68,1.64 2.99,0.51 5.69,0.9 8.4,1.24 0.509,0.56 0.789,0.9 1.299,1.52 a 48.41,48.41 0 0 1 -7.211,-0.85 z m -1.86,2.71 c -0.85,0.17 -1.809,0.45 -2.71,0.68 -0.9,0.229 -1.86,0.67 -2.989,1.07 a 9.86,9.86 0 0 1 4.4,5.24 h 0.059 c 0.56,-2.76 0.79,-4.111 1.24,-6.99 z"
         class="cls-6"
         style="fill:#fffdfd;stroke-width:0.849305" /><path
         id="path47"
         d="m 83.215,277.375 -1.699,13.81 a 13.156,13.156 0 0 1 -1.18,-1.521 c 0.5,-3.89 0.79,-5.86 1.29,-9.759 a 3.227,3.227 0 0 0 -0.05,-1.07 2.123,2.123 0 0 0 -0.62,-0.9 3.185,3.185 0 0 0 -0.909,-0.67 3.057,3.057 0 0 0 -1.01,-0.29 l -0.17,-0.849 -0.17,-0.68 a 2.616,2.616 0 0 1 0.62,0.06 3.55,3.55 0 0 1 1.919,0.85 2.981,2.981 0 0 1 0.85,1.86 c 0,-0.28 0.059,-0.62 0.059,-1.011 0,-0.391 0.11,-0.85 0.11,-1.41 0,-0.56 0.06,-1.02 0.06,-1.35 0,-0.332 0.06,-0.68 0.06,-1.02 a 3.21,3.21 0 0 0 0.45,0.45 3.312,3.312 0 0 0 0.62,2.14 7.015,7.015 0 0 1 1.18,0.17 c 0.51,0.57 0.68,0.85 1.189,1.41 -1.045,-0.05 -1.546,-0.11 -2.6,-0.22 z"
         class="cls-6"
         style="fill:#fffdfd;stroke-width:0.849305" /><path
         id="path49"
         d="m 108.507,276.755 a 10.421,10.421 0 0 0 -1.47,-1.19 10.192,10.192 0 0 0 -1.698,-1.18 7.966,7.966 0 0 0 -1.86,-0.85 8.051,8.051 0 0 0 -2.03,-0.33 6.327,6.327 0 0 0 -3.159,0.849 c -1.18,0.68 -1.92,1.469 -2.03,2.37 a 11.228,11.228 0 0 0 0.45,1.299 l 0.34,0.05 a 5.096,5.096 0 0 0 0.586,0.052 3.728,3.728 0 0 1 1.835,1.469 H 98.63 l -0.73,-0.076 -0.79,-0.051 c -0.46,5.52 -0.629,8.28 -1.02,13.75 -0.51,-0.56 -0.849,-0.85 -1.35,-1.41 0.45,-5.02 0.56,-7.55 1.01,-12.51 -0.849,-0.06 -1.29,-0.06 -2.14,-0.17 -0.51,-0.62 -0.73,-0.85 -1.18,-1.47 1.46,0.17 2.191,0.17 3.6,0.34 -0.33,-0.34 -0.5,-0.56 -0.848,-0.9 a 1.342,1.342 0 0 1 -0.45,-1.07 c 0.05,-1.13 0.79,-2.03 2.14,-2.88 a 6.404,6.404 0 0 1 3.55,-1.129 c 2.76,0.17 5.41,1.699 7.95,4.4 a 3.601,3.601 0 0 0 0.135,0.637 z"
         class="cls-6"
         style="fill:#fffdfd;stroke-width:0.849305" /><path
         id="path51"
         d="m 109.23,279.744 c -0.162,5.58 -0.222,8.4 -0.502,13.98 a 10.667,10.667 0 0 1 -0.79,-0.9 1.622,1.622 0 0 0 -0.17,-0.45 3.185,3.185 0 0 0 -0.45,-0.85 5.487,5.487 0 0 0 -0.85,-1.3 7.372,7.372 0 0 0 -1.01,-1.189 9.13,9.13 0 0 0 -4.739,-2.14 l -1.699,-2.548 a 39.408,39.408 0 0 1 8.68,-3.728 v -0.9 c -3.72,-0.17 -5.69,-0.28 -9.342,-0.51 -0.501,-0.62 -0.79,-0.85 -1.29,-1.46 1.613,0.135 3.26,0.246 4.934,0.347 q 4.458,0.264 8.68,0.357 l 0.492,0.57 c 0.212,0.254 0.416,0.509 0.603,0.755 h -1.087 c -0.51,0.017 -0.994,0 -1.46,-0.034 z m -1.462,3.16 a 27.798,27.798 0 0 0 -2.76,1.01 c -0.909,0.4 -1.92,0.909 -2.99,1.41 a 11.423,11.423 0 0 1 5.521,4.85 c 0.06,-2.871 0.17,-4.4 0.23,-7.27 z"
         class="cls-6"
         style="fill:#fffdfd;stroke-width:0.849305" /><path
         id="path53"
         d="m 124.296,279.795 c 0.11,5.58 0.17,8.4 0.22,13.98 a 15.787,15.787 0 0 1 -0.738,-0.654 35.781,35.781 0 0 1 -0.671,-0.654 c 0,-1.393 0,-2.786 -0.043,-4.17 l -0.068,-4.111 v -0.272 a 3.559,3.559 0 0 0 -0.9,-2.03 2.548,2.548 0 0 0 -1.809,-1.189 1.486,1.486 0 0 0 -1.01,0.34 c -0.34,0.28 -0.51,0.51 -0.51,0.79 1.47,1.019 2.2,1.75 2.2,2.48 a 1.758,1.758 0 0 1 -0.51,1.359 2.99,2.99 0 0 1 -1.35,0.781 2.098,2.098 0 0 1 -1.3,-0.45 1.843,1.843 0 0 1 -0.85,-1.18 2.285,2.285 0 0 1 -2.31,1.639 1.63,1.63 0 0 1 -1.299,-0.57 1.775,1.775 0 0 1 -0.407,-1.367 2.208,2.208 0 0 1 0.17,-0.9 6.616,6.616 0 0 1 0.5,-0.85 3.117,3.117 0 0 1 0.79,-0.679 c 0.34,-0.17 0.62,-0.331 0.91,-0.45 a 4.102,4.102 0 0 0 -2.32,-1.741 3.805,3.805 0 0 0 -1.698,-0.085 l -0.578,-0.594 c -0.246,-0.264 -0.5,-0.519 -0.755,-0.773 a 16.561,16.561 0 0 1 2.412,0.144 4.909,4.909 0 0 1 2.666,0.85 3.33,3.33 0 0 1 0.56,0.585 3.508,3.508 0 0 1 0.62,1.393 c 0.85,-1.75 2.03,-2.709 3.5,-2.709 0.51,0 1.18,0.45 1.92,1.35 a 6.794,6.794 0 0 1 1.494,2.166 c -0.06,-2.37 -0.17,-3.559 -0.34,-5.869 0.34,0.34 0.51,0.45 0.85,0.79 a 1.699,1.699 0 0 0 0.9,1.3 1.605,1.605 0 0 0 0.994,0.093 8.425,8.425 0 0 0 0.662,1.18 l -1.138,0.052 z m 0.28,16.01 a 4.425,4.425 0 0 1 -1.699,-1.41 4.875,4.875 0 0 0 -1.41,-1.52 3.057,3.057 0 0 0 -1.358,-0.51 c -0.56,-0.051 -1.07,-0.162 -1.699,-0.221 -0.62,-0.79 -0.85,-1.13 -1.359,-1.86 l 3.16,-2.03 2.879,-1.75 1.393,1.478 z m -1.52,-7.211 c -0.45,0.28 -0.909,0.5 -1.529,0.9 -0.62,0.4 -1.35,0.79 -2.14,1.3 a 7.245,7.245 0 0 1 1.92,0.79 10.132,10.132 0 0 1 1.8,1.52 c 0.025,-1.792 0.025,-2.642 -0.051,-4.51 z"
         class="cls-6"
         style="fill:#fffdfd;stroke-width:0.849305" /><path
         id="path55"
         d="m 140.475,276.185 c -0.45,-0.33 -0.96,-0.67 -1.52,-1.01 -0.56,-0.34 -1.19,-0.68 -1.869,-1.02 a 8.434,8.434 0 0 0 -1.97,-0.67 c -0.68,-0.06 -1.35,-0.17 -2.03,-0.17 a 5.699,5.699 0 0 0 -3.04,1.18 c -1.07,0.79 -1.75,1.699 -1.75,2.6 a 12.74,12.74 0 0 0 0.62,1.29 l 0.85,-0.06 h 0.849 a 1.571,1.571 0 0 0 0.068,0.391 1.29,1.29 0 0 0 0.144,0.306 0.85,0.85 0 0 0 0.11,0.331 1.13,1.13 0 0 0 0.179,0.23 h -0.57 l -1.078,0.05 c 0.17,5.53 0.23,8.29 0.45,13.87 -0.62,-0.51 -0.951,-0.79 -1.52,-1.291 -0.17,-5.02 -0.17,-7.559 -0.34,-12.519 -0.85,0 -1.29,0 -2.14,0.06 a 15.287,15.287 0 0 1 -1.35,-1.3 c 1.46,0 2.2,0 3.66,-0.06 -0.45,-0.339 -0.62,-0.5 -1.01,-0.849 a 1.699,1.699 0 0 1 -0.62,-1.019 3.932,3.932 0 0 1 1.749,-3.04 5.741,5.741 0 0 1 3.397,-1.47 c 2.82,-0.05 5.58,1.02 8.4,3.55 a 1.699,1.699 0 0 1 0.331,0.62 z"
         class="cls-6"
         style="fill:#fffdfd;stroke-width:0.849305" /><path
         id="path57"
         d="m 141.817,279.065 c 0.45,5.58 0.62,8.4 1.02,13.869 l -0.85,-0.85 a 1.877,1.877 0 0 1 -0.23,-0.45 l -0.5,-0.79 a 10.659,10.659 0 0 0 -2.2,-2.2 9.249,9.249 0 0 0 -4.91,-1.63 c -0.73,-0.9 -1.18,-1.41 -1.91,-2.37 a 45.438,45.438 0 0 1 8.28,-4.68 2.098,2.098 0 0 0 -0.11,-0.9 c -1.24,0.111 -2.48,0.17 -3.72,0.221 -1.92,0.12 -3.83,0.17 -5.69,0.29 -0.17,-0.17 -0.4,-0.34 -0.57,-0.51 a 9.869,9.869 0 0 1 -0.73,-0.73 c 2.03,-0.06 4.17,-0.12 6.37,-0.29 2.2,-0.17 4.4,-0.28 6.48,-0.5 a 9.122,9.122 0 0 1 1.64,0.9 c 0.17,0.11 0.28,0.22 0.39,0.28 -1.061,0.17 -1.681,0.23 -2.76,0.34 z m -1.13,3.21 a 20.095,20.095 0 0 0 -2.65,1.359 c -0.9,0.501 -1.86,1.121 -2.76,1.741 a 11.627,11.627 0 0 1 5.945,4.246 c -0.186,-2.947 -0.254,-4.467 -0.526,-7.346 z"
         class="cls-6"
         style="fill:#fffdfd;stroke-width:0.849305" /><path
         id="path59"
         d="m 146.913,278.615 c 0.23,2.48 0.34,3.72 0.62,6.14 0.458,-0.56 0.96,-1.07 1.47,-1.63 0.509,-0.561 1.07,-0.9 1.579,-1.41 0.51,-0.51 1.07,-0.85 1.58,-1.181 a 13.037,13.037 0 0 1 1.46,-0.85 c 1.02,0.561 1.41,0.85 2.43,1.351 a 15.211,15.211 0 0 0 -1.19,6.71 20.96,20.96 0 0 0 1.02,3.949 c -0.45,-0.17 -0.62,-0.17 -1.02,-0.34 -0.45,-1.18 -0.73,-2.26 -1.01,-3.21 a 16.774,16.774 0 0 1 -0.51,-2.37 12.493,12.493 0 0 1 0.06,-3.55 9.19,9.19 0 0 0 -3.1,2.48 11.975,11.975 0 0 0 -2.14,3.397 l -2.15,-1.698 c -0.28,-3.151 -0.45,-4.672 -0.67,-7.78 a 11.253,11.253 0 0 1 -1.41,0.06 c -0.62,-0.51 -0.96,-0.79 -1.53,-1.181 5.42,-0.45 8.01,-0.68 13.42,-1.359 0.569,0.45 0.9,0.68 1.52,1.19 -4.127,0.602 -6.183,0.882 -10.43,1.282 z"
         class="cls-6"
         style="fill:#fffdfd;stroke-width:0.849305" /><path
         id="path61"
         d="m 161.869,276.78 c -1.29,0.289 -1.86,1.3 -1.75,2.82 a 13.903,13.903 0 0 0 0.85,3.558 c 0.23,0.782 0.51,1.461 0.68,2.03 0.17,0.57 0.22,1.121 0.339,1.52 a 3.61,3.61 0 0 1 -0.17,1.52 4.977,4.977 0 0 1 -0.79,1.52 11.372,11.372 0 0 1 -1.189,1.02 6.99,6.99 0 0 1 -1.35,0.79 6.845,6.845 0 0 1 -0.85,-0.45 5.36,5.36 0 0 0 1.3,-0.79 2.616,2.616 0 0 0 1.02,-1.02 3.55,3.55 0 0 0 0.33,-2.31 10.039,10.039 0 0 0 -0.22,-1.07 c -0.17,-0.45 -0.34,-0.9 -0.62,-1.52 -0.51,-1.078 -0.73,-2.03 -0.96,-2.599 a 5.699,5.699 0 0 1 1.52,-4.79 c -0.9,0.17 -1.8,0.28 -2.7,0.391 l -1.24,0.17 c -0.29,-0.221 -0.57,-0.45 -0.91,-0.671 -0.34,-0.22 -0.5,-0.34 -0.73,-0.51 1.13,-0.17 2.26,-0.34 3.5,-0.51 0.9,-0.11 1.8,-0.17 2.65,-0.28 a 3.176,3.176 0 0 1 1.52,0.4 2.548,2.548 0 0 1 0.73,0.56 c -0.45,0.11 -0.629,0.11 -0.96,0.221 z"
         class="cls-6"
         style="fill:#fffdfd;stroke-width:0.849305" /><path
         id="path63"
         d="m 164.893,276.491 c 0.34,2.157 0.721,4.637 1.061,6.795 l 1.07,6.794 a 18.167,18.167 0 0 0 -1.58,-1.13 c -0.62,-3.89 -0.849,-5.86 -1.46,-9.75 a 1.699,1.699 0 0 0 -0.45,-1.07 9.597,9.597 0 0 0 -0.74,-0.79 7.075,7.075 0 0 0 -1.01,-0.45 3.924,3.924 0 0 0 -1.18,0 c -0.57,-0.45 -0.91,-0.679 -1.53,-1.13 a 6.845,6.845 0 0 0 1.53,-0.228 4.357,4.357 0 0 1 2.02,0.229 4.051,4.051 0 0 1 1.36,1.63 4.799,4.799 0 0 0 -0.17,-1.01 c -0.11,-0.45 -0.17,-0.85 -0.34,-1.35 -0.17,-0.502 -0.17,-0.91 -0.23,-1.36 a 3.108,3.108 0 0 1 -0.16,-0.9 4.247,4.247 0 0 1 0.5,0.34 4.799,4.799 0 0 0 1.275,2.03 l 0.62,-0.11 0.654,-0.094 0.424,0.323 c 0.4,0.289 0.79,0.543 1.164,0.773 l -1.087,0.161 z"
         class="cls-6"
         style="fill:#fffdfd;stroke-width:0.849305" /><path
         id="path65"
         d="m 179.093,273.706 c 1.07,5.528 1.699,8.23 2.76,13.699 a 8.17,8.17 0 0 0 -1.698,-0.9 c -0.62,-2.99 -0.85,-4.51 -1.47,-7.44 a 1.444,1.444 0 0 0 -0.73,-1.07 1.91,1.91 0 0 0 -1.317,-0.272 c -0.738,0.17 -1.07,0.67 -0.908,1.63 0,0.17 0.17,0.51 0.229,0.79 a 1.367,1.367 0 0 0 -0.51,0.34 2.93,2.93 0 0 0 -1.46,-1.52 3.737,3.737 0 0 0 -2.2,-0.34 2.038,2.038 0 0 0 -0.9,0.34 c -0.23,0.17 -0.51,0.45 -0.79,0.67 -0.28,0.221 -0.34,0.62 -0.45,0.85 a 5.818,5.818 0 0 0 -0.06,1.01 c 0.17,1.07 0.9,1.64 2.37,1.53 a 2.166,2.166 0 0 1 -0.68,-1.02 1.147,1.147 0 0 1 0.34,-1.13 1.359,1.359 0 0 1 1.01,-0.56 1.902,1.902 0 0 1 2.31,1.656 2.404,2.404 0 0 1 -0.339,1.36 2.548,2.548 0 0 1 -1.58,0.848 8.009,8.009 0 0 1 -1.698,0 4.501,4.501 0 0 1 -1.478,-0.51 3.5,3.5 0 0 1 -1.01,-1.018 4.017,4.017 0 0 1 -0.51,-1.52 4.535,4.535 0 0 1 0.34,-2.59 2.658,2.658 0 0 1 2.03,-1.666 4.085,4.085 0 0 1 3.439,1.181 1.699,1.699 0 0 1 0.331,-1.18 2.09,2.09 0 0 1 1.02,-0.79 c 1.07,-0.28 2.14,0.34 2.989,1.698 -0.28,-1.46 -0.45,-2.14 -0.68,-3.55 -1.919,0.4 -3.89,0.73 -5.945,1.13 l -4.85,0.849 a 4.323,4.323 0 0 1 -0.62,-0.501 2.956,2.956 0 0 1 -0.509,-0.68 c 3.44,-0.45 5.869,-0.9 7.449,-1.18 l 6.14,-1.24 c 0.06,0 0.51,-0.119 0.57,-0.119 0.28,0.17 0.5,0.34 0.79,0.51 0.288,0.17 0.5,0.34 0.78,0.51 a 6.242,6.242 0 0 0 -2.505,0.195 z"
         class="cls-6"
         style="fill:#fffdfd;stroke-width:0.849305" /><path
         id="path67"
         d="m 191.501,271.15 c 1.36,5.528 2.03,8.178 3.398,13.707 a 6.506,6.506 0 0 1 -2.03,-1.64 8.748,8.748 0 0 0 -2.6,-1.919 8.034,8.034 0 0 0 -4.39,-0.33 c -0.909,-0.79 -1.41,-1.13 -2.37,-1.87 0.56,-0.849 1.18,-1.63 1.75,-2.36 a 12.281,12.281 0 0 1 1.63,-1.98 3.066,3.066 0 0 0 -1.129,-0.34 c -0.501,-0.05 -1.18,-0.22 -2.03,-0.33 -1.91,-0.06 -3.397,-0.57 -4.246,-1.529 5.01,-1.01 7.44,-1.63 12.459,-2.87 0.67,0.339 1.01,0.56 1.699,0.9 -0.782,0.229 -1.181,0.28 -2.14,0.56 z m -4.246,13.027 a 1.198,1.198 0 0 1 0.28,-1.019 1.35,1.35 0 0 1 0.9,-0.56 1.826,1.826 0 0 1 1.13,0.17 1.478,1.478 0 0 1 0.68,0.849 1.699,1.699 0 0 1 -0.17,1.02 1.29,1.29 0 0 1 -0.9,0.56 1.826,1.826 0 0 1 -1.13,-0.17 0.943,0.943 0 0 1 -0.824,-0.85 z m 2.972,-12.799 c -2.03,0.51 -3.1,0.79 -5.096,1.181 a 10.056,10.056 0 0 1 1.75,0.85 c 0.68,0.45 1.52,0.9 2.37,1.52 -0.45,0.569 -0.85,1.299 -1.3,1.919 -0.45,0.62 -0.85,1.35 -1.29,2.03 a 9.767,9.767 0 0 1 6.08,2.71 h 0.034 c -0.985,-4.01 -1.495,-6.04 -2.548,-10.21 z"
         class="cls-6"
         style="fill:#fffdfd;stroke-width:0.849305" /><path
         id="path69"
         d="m 61.32,47.018 a 20.222,20.222 0 0 0 -2.37,1.299 29.513,29.513 0 0 0 -2.7,1.91 17.097,17.097 0 0 0 -2.48,2.48 27.475,27.475 0 0 0 -2.15,3.05 15.237,15.237 0 0 0 -1.698,5.69 c -0.289,2.37 0,3.84 0.782,4.247 a 13.453,13.453 0 0 1 1.528,-0.34 l 0.34,-0.85 a 5.894,5.894 0 0 1 0.39,-0.9 c 0.34,-0.229 0.731,-0.45 1.13,-0.738 0.4,-0.29 0.73,-0.561 1.07,-0.79 l -0.34,0.68 c -0.39,0.789 -0.73,1.579 -1.07,2.31 4.79,2.369 7.27,3.55 12.12,5.944 -0.79,0.51 -1.18,0.79 -1.97,1.35 -4.4,-2.03 -6.71,-3.04 -11.041,-4.96 -0.57,1.351 -0.85,2.03 -1.36,3.5 -0.848,0.73 -1.18,1.07 -2.029,1.86 a 59.706,59.706 0 0 1 2.319,-6.234 c -0.56,0.51 -0.85,0.73 -1.41,1.291 -0.56,0.56 -1.01,0.68 -1.35,0.51 -0.9,-0.45 -1.52,-1.97 -1.351,-4.51 a 16.205,16.205 0 0 1 1.699,-6.59 20.918,20.918 0 0 1 11.27,-10.192 c 0.28,-0.128 0.331,-0.017 0.67,-0.017 z"
         class="cls-5"
         style="fill:#ffffff;stroke-width:0.849305" /><path
         id="path71"
         d="m 67.078,44.818 c 3.89,3.89 5.81,5.869 9.75,9.758 -0.85,0.162 -1.35,0.221 -2.191,0.45 a 208.772,208.772 0 0 0 -5.988,-5.766 3.312,3.312 0 0 0 -2.48,-0.34 3.397,3.397 0 0 0 -2.59,1.47 4.892,4.892 0 0 0 -0.747,1.477 c -0.17,0.62 -0.06,0.96 0.17,1.07 2.14,-1.3 3.397,-1.52 3.89,-1.07 a 1.699,1.699 0 0 1 0.56,1.47 4.476,4.476 0 0 1 -0.68,2.14 5.453,5.453 0 0 1 -1.46,1.29 2.191,2.191 0 0 1 -1.7,0.34 4.179,4.179 0 0 1 -0.509,3.89 3.618,3.618 0 0 1 -1.41,1.359 1.41,1.41 0 0 1 -1.41,0 1.945,1.945 0 0 1 -0.679,-0.79 3.754,3.754 0 0 1 -0.34,-1.189 13.963,13.963 0 0 1 0,-1.46 3.907,3.907 0 0 1 0.46,-1.53 4.884,4.884 0 0 0 -3.33,2.43 c -0.824,1.333 -1.164,2.182 -1.334,2.37 -0.34,0.22 -0.73,0.5 -1.13,0.789 -0.398,0.289 -0.73,0.56 -1.12,0.85 a 26.405,26.405 0 0 1 2.31,-4.731 7.117,7.117 0 0 1 2.37,-2.6 2.939,2.939 0 0 1 2.547,-0.62 6.548,6.548 0 0 1 1.19,-6.259 4.858,4.858 0 0 1 3.04,-1.57 5.758,5.758 0 0 1 2.99,-0.23 l 0.059,-0.11 c -1.75,-1.53 -2.599,-2.2 -4.51,-3.72 a 14.226,14.226 0 0 1 1.46,-0.51 2.166,2.166 0 0 0 2.43,-0.17 8.816,8.816 0 0 1 1.52,-0.73 5.64,5.64 0 0 1 1.24,-0.29 c -0.866,0.952 -1.367,1.462 -2.378,2.532 z"
         class="cls-5"
         style="fill:#ffffff;stroke-width:0.849305" /><path
         id="path73"
         d="m 92.948,26.779 a 57.464,57.464 0 0 0 -8.68,4.06 c 0.45,0.73 0.62,1.18 1.01,1.919 a 6.854,6.854 0 0 1 1.3,-0.79 6.676,6.676 0 0 1 4.06,-0.85 2.956,2.956 0 0 1 2.548,1.64 2.599,2.599 0 0 1 0,1.86 3.024,3.024 0 0 1 -1.18,1.35 4.9,4.9 0 0 1 -1.92,0.51 1.512,1.512 0 0 1 -1.35,-0.45 1.045,1.045 0 0 1 0,-1.07 1.478,1.478 0 0 1 0.9,-0.85 2.888,2.888 0 0 1 2.37,-0.17 2.03,2.03 0 0 0 0,-0.85 c -0.17,-0.45 -0.85,-0.67 -1.86,-0.5 a 10.489,10.489 0 0 0 -2.37,0.79 8.034,8.034 0 0 0 -1.461,1.01 c 1.74,3.398 2.7,5.096 4.45,8.63 a 7.975,7.975 0 0 0 -1.01,-0.23 c -0.68,-0.51 -1.19,-0.85 -1.7,-1.18 a 4.289,4.289 0 0 0 -1.01,-0.62 5.266,5.266 0 0 0 -3.72,-0.06 2.947,2.947 0 0 1 -1.35,2.548 2.497,2.497 0 0 1 -1.64,0.62 1.376,1.376 0 0 1 -1.299,-2.2 3.762,3.762 0 0 1 1.699,-1.698 1.215,1.215 0 0 0 -0.23,-0.73 1.546,1.546 0 0 0 -1.469,-0.68 3.007,3.007 0 0 0 -1.91,0.68 0.56,0.56 0 0 0 -0.34,0.45 c -0.06,0.22 -0.34,0.45 -0.28,0.5 a 3.474,3.474 0 0 1 0.17,1.47 3.983,3.983 0 0 1 -1.02,1.639 3.312,3.312 0 0 1 -1.783,0.9 1.605,1.605 0 0 1 -1.631,-0.51 c -0.45,-0.509 -0.23,-1.469 0.45,-2.48 a 5.945,5.945 0 0 1 0.79,-0.849 c 0,-0.05 0,-0.05 -0.06,-0.17 -0.059,-0.118 -0.17,-0.05 -0.34,-0.16 h -0.56 c -0.28,0 -0.45,0.11 -0.68,0.11 -0.229,0 -0.45,0.05 -0.5,0.17 -0.91,0.849 -1.41,1.29 -2.26,2.199 a 17.198,17.198 0 0 0 -2.48,0.671 71.732,71.732 0 0 1 24.359,-16.8 3.584,3.584 0 0 1 1.987,0.17 z m -5.86,13.138 c -1.02,-1.86 -1.529,-2.768 -2.548,-4.68 a 11.347,11.347 0 0 1 -4.247,1.181 4.586,4.586 0 0 1 -3.329,-1.01 c -1.699,1.29 -2.548,1.91 -4.247,3.397 a 3.762,3.762 0 0 1 0.68,0.17 c 0.22,0.11 0.56,0.17 1.01,0.34 0.28,-0.17 0.51,-0.23 0.68,-0.34 0.17,-0.11 0.34,-0.17 0.501,-0.23 a 5.529,5.529 0 0 1 2.149,-0.67 13.988,13.988 0 0 1 2.14,-0.17 5.945,5.945 0 0 1 1.86,0.5 4.544,4.544 0 0 1 1.3,1.02 4.892,4.892 0 0 1 4.06,0.51 z m -3.397,-6.09 c -0.45,-0.848 -0.68,-1.188 -1.07,-2.029 -1.47,0.85 -2.15,1.29 -3.398,2.14 -0.289,0.17 -0.34,0.45 -0.119,0.85 0.68,1.01 1.86,0.849 3.84,-0.34 a 1.189,1.189 0 0 1 0.45,-0.23 c -0.086,-0.17 0.084,-0.246 0.254,-0.39 z"
         class="cls-5"
         style="fill:#ffffff;stroke-width:0.849305" /><path
         id="path75"
         d="m 96.897,25.539 c 1.605,5.24 2.455,7.95 4.153,13.19 -0.79,-0.34 -1.189,-0.45 -1.92,-0.79 -1.299,-3.72 -1.86,-5.58 -3.159,-9.343 a 1.588,1.588 0 0 0 -0.67,-0.9 2.336,2.336 0 0 0 -1.19,-0.45 2.998,2.998 0 0 0 -0.73,-0.06 4.085,4.085 0 0 0 -0.85,0.06 h -0.78 a 0.943,0.943 0 0 1 -0.68,-0.4 2.548,2.548 0 0 1 -0.17,-0.39 c 0.56,-0.17 0.96,-0.28 1.3,-0.4 a 5.826,5.826 0 0 1 0.62,-0.17 1.834,1.834 0 0 1 0.79,-0.05 4.51,4.51 0 0 1 0.62,0.11 4.663,4.663 0 0 1 1.52,0.96 c -0.11,-0.23 -0.17,-0.62 -0.34,-0.96 -0.17,-0.34 -0.34,-0.73 -0.62,-1.3 a 4.722,4.722 0 0 1 -0.51,-1.29 c -0.17,-0.34 -0.22,-0.68 -0.34,-0.9 a 4.247,4.247 0 0 1 0.85,0.161 3.15,3.15 0 0 0 1.86,1.529 l 0.51,-0.17 a 6.743,6.743 0 0 0 1.07,-0.45 c 0.28,0.11 0.62,0.22 1.01,0.331 a 8.96,8.96 0 0 0 1.64,0.34 c -0.85,0.229 -1.64,0.51 -2.48,0.79 -0.553,0.212 -1.003,0.382 -1.504,0.552 z"
         class="cls-5"
         style="fill:#ffffff;stroke-width:0.849305" /><path
         id="path77"
         d="m 119.667,22.328 a 63.035,63.035 0 0 0 -10.77,0.79 c 0.17,0.161 0.46,0.22 0.63,0.45 a 5.767,5.767 0 0 0 0.62,0.331 8.986,8.986 0 0 1 4.11,1.08 2.87,2.87 0 0 1 1.699,2.547 3.236,3.236 0 0 1 -1.699,2.769 15.78,15.78 0 0 1 -3.864,1.783 18.413,18.413 0 0 1 4.06,1.699 28.146,28.146 0 0 1 4.34,2.879 c 0.17,0.501 0.229,0.85 0.398,1.35 a 13.657,13.657 0 0 0 -2.598,-1.919 18.421,18.421 0 0 0 -3.398,-1.52 15.916,15.916 0 0 0 -3.83,-0.85 24.137,24.137 0 0 0 -4.009,-0.161 c -1.07,-1.079 -1.698,-1.699 -2.87,-2.71 a 21.453,21.453 0 0 0 5.35,-0.11 10.812,10.812 0 0 0 3.61,-1.019 c 1.47,-0.73 2.14,-1.52 1.92,-2.37 a 1.91,1.91 0 0 0 -0.85,-1.52 3.601,3.601 0 0 0 -0.96,-0.45 6.064,6.064 0 0 0 -1.07,-0.06 c -0.17,0 -0.331,0.06 -0.501,0.06 -0.17,0 -0.45,0.11 -0.51,0.17 a 3.635,3.635 0 0 1 -0.9,1.86 4.459,4.459 0 0 1 -2.37,1.18 7.55,7.55 0 0 1 -1.639,0 1.189,1.189 0 0 1 -0.9,-0.78 2.641,2.641 0 0 1 0.892,-2.328 6.073,6.073 0 0 1 3.049,-1.52 c 0,-0.22 -0.51,-0.51 -1.52,-0.85 -1.36,0.221 -2.77,0.502 -4.179,0.85 -0.39,0.11 -0.73,0.17 -1.121,0.28 a 2.667,2.667 0 0 1 -1.699,0 2.123,2.123 0 0 1 -0.95,-0.62 c 1.63,-0.5 3.49,-1.01 5.469,-1.46 a 59.774,59.774 0 0 1 7.44,-1.19 4.247,4.247 0 0 0 0.849,-0.17 8.536,8.536 0 0 1 0.85,-0.22 c 0.79,-0.23 1.07,-0.51 1.07,-0.85 0,-0.34 -0.51,-0.5 -1.351,-0.62 -0.23,0 -0.62,-0.11 -0.96,-0.11 a 3.21,3.21 0 0 0 -1.019,0.11 6.981,6.981 0 0 0 -1.29,0.17 13.86,13.86 0 0 0 -1.75,0.34 c -0.68,0.17 -1.3,0.23 -1.81,0.34 -0.509,0.11 -0.9,0.17 -1.29,0.22 a 12.086,12.086 0 0 1 -4.46,0.23 c -1.63,-0.17 -2.59,-0.68 -2.87,-1.52 a 1.486,1.486 0 0 1 0.28,-1.02 c 0.23,-0.51 0.51,-0.79 0.85,-0.79 a 0.357,0.357 0 0 0 0.22,-0.05 c 0.06,0 0.17,-0.12 0.34,-0.12 a 1.435,1.435 0 0 0 -0.68,1.36 c 0.12,0.45 0.62,0.67 1.47,0.73 a 6.115,6.115 0 0 0 2.2,-0.17 c 0.34,-0.06 0.96,-0.22 1.86,-0.45 0.9,-0.23 2.2,-0.62 3.66,-0.85 a 13.292,13.292 0 0 1 6.15,0.23 2.65,2.65 0 0 1 2.02,2.624 c 0.68,0 1.011,-0.11 1.801,-0.11 a 13.589,13.589 0 0 0 2.48,2.055 z"
         class="cls-5"
         style="fill:#ffffff;stroke-width:0.849305" /><path
         id="path79"
         d="m 155.924,31.849 c -1.359,-0.781 -2.03,-1.18 -3.397,-1.86 -2.42,4.968 -3.72,7.448 -6.14,12.46 a 3.992,3.992 0 0 0 -0.45,-0.502 7.703,7.703 0 0 0 -1.86,-6.37 5.02,5.02 0 0 1 -2.26,0.501 8.612,8.612 0 0 1 -2.76,-0.5 4.646,4.646 0 0 1 -1.64,-0.85 10.251,10.251 0 0 1 -1.545,-1.3 14.277,14.277 0 0 1 -1.47,-1.698 17.198,17.198 0 0 1 -1.18,-1.92 8.79,8.79 0 0 1 -0.9,-2.76 19.9,19.9 0 0 1 -0.34,-3.27 12.391,12.391 0 0 1 1.13,0.62 9.92,9.92 0 0 0 0.73,3.16 10.463,10.463 0 0 0 1.35,2.548 9.274,9.274 0 0 0 1.86,2.03 6.276,6.276 0 0 0 2.319,1.3 c 2.03,0.679 3.55,0.73 4.51,0.169 a 3.134,3.134 0 0 0 1.35,-1.52 1.367,1.367 0 0 0 0.17,-0.68 4.977,4.977 0 0 0 -0.23,-1.3 2.149,2.149 0 0 0 -0.62,-1.01 2.718,2.718 0 0 0 -1.01,-0.85 c -0.34,-0.169 -0.79,-0.22 -1.07,-0.339 a 1.699,1.699 0 0 1 0.22,1.19 1.699,1.699 0 0 1 -0.62,0.67 4.816,4.816 0 0 1 -1.18,0.34 4.247,4.247 0 0 1 -2.31,-0.34 3.397,3.397 0 0 1 -1.699,-1.35 1.614,1.614 0 0 1 -0.118,-1.01 1.809,1.809 0 0 1 0.679,-0.91 2.71,2.71 0 0 1 1.3,-0.5 8.629,8.629 0 0 1 3.397,0.22 c 0.5,0.17 1.01,0.45 1.52,0.68 a 9.852,9.852 0 0 1 1.8,1.52 7.16,7.16 0 0 1 1.19,1.92 3.261,3.261 0 0 1 -0.17,2.7 5.8,5.8 0 0 1 -1.19,1.699 20.63,20.63 0 0 1 1.623,2.53 c 1.529,-3.329 2.259,-4.908 3.839,-8.23 -7.406,-3.558 -11.237,-4.738 -19.246,-6.106 a 16.646,16.646 0 0 0 -1.86,-1.639 69.006,69.006 0 0 1 25.038,8.434 18.557,18.557 0 0 1 1.24,2.123 z m 3.04,1.979 c -2.99,4.68 -4.399,6.99 -7.27,11.67 -0.229,-0.85 -0.45,-1.19 -0.68,-2.03 1.92,-3.398 2.99,-5.096 4.96,-8.494 a 2.607,2.607 0 0 0 0.281,-1.18 2.42,2.42 0 0 0 -0.45,-1.3 5.198,5.198 0 0 0 -1.01,-1.18 6.174,6.174 0 0 0 -1.47,-1.02 c -0.51,-0.849 -0.73,-1.29 -1.29,-2.14 0.848,0.45 1.29,0.68 2.14,1.07 a 8.756,8.756 0 0 1 2.369,1.92 3.338,3.338 0 0 1 0.501,2.37 8.493,8.493 0 0 1 0.51,-0.85 c 0.17,-0.34 0.34,-0.73 0.62,-1.3 0.28,-0.568 0.45,-0.848 0.62,-1.29 0.17,-0.442 0.34,-0.62 0.45,-0.85 a 6.225,6.225 0 0 0 0.45,0.79 3.227,3.227 0 0 0 0.06,2.421 16.417,16.417 0 0 0 1.596,1.113 18.073,18.073 0 0 1 0.909,2.31 c -1.266,-0.68 -1.945,-1.19 -3.296,-2.03 z"
         class="cls-5"
         style="fill:#ffffff;stroke-width:0.849305" /><path
         id="path81"
         d="m 171.874,44.877 a 14.515,14.515 0 0 0 -3.729,-2.2 9.342,9.342 0 0 0 -3.397,-0.62 7.941,7.941 0 0 0 -2.71,0.731 8.493,8.493 0 0 0 -2.199,1.92 4.017,4.017 0 0 0 -0.73,2.709 c 0.17,1.698 0.68,2.76 1.58,3.397 a 1.894,1.894 0 0 1 -0.17,-1.07 0.926,0.926 0 0 1 0.34,-0.74 0.9,0.9 0 0 1 1.18,-0.22 3.915,3.915 0 0 1 1.47,0.73 2.446,2.446 0 0 1 0.73,1.52 1.452,1.452 0 0 1 -0.51,1.47 2.225,2.225 0 0 1 -0.79,0.45 1.265,1.265 0 0 1 -0.9,0 2.726,2.726 0 0 1 -1.01,-0.45 5.852,5.852 0 0 1 -1.02,-0.73 6.327,6.327 0 0 1 -2.115,-5.062 7.525,7.525 0 0 1 1.461,-4.4 c 1.359,-1.86 3.839,-2.87 7.449,-2.548 -0.96,-0.849 -1.98,-1.698 -3.1,-2.65 -0.85,-0.67 -1.64,-1.29 -2.48,-1.86 0,-0.22 0.05,-0.5 0.05,-0.73 v -0.85 a 52.903,52.903 0 0 1 5.096,4.001 55.205,55.205 0 0 1 5.096,5.24 c 0,0.23 0.06,0.45 0.06,0.68 a 6.438,6.438 0 0 1 0.348,1.282 z"
         class="cls-5"
         style="fill:#ffffff;stroke-width:0.849305" /><path
         id="path83"
         d="m 182.983,60.547 c -4.74,2.71 -7.109,4.17 -11.84,6.794 0.051,-0.9 0.051,-1.41 0.051,-2.36 2.548,-1.64 3.84,-2.37 6.26,-3.89 0.45,-0.23 0.62,-0.68 0.62,-1.36 a 3.584,3.584 0 0 0 -0.586,-1.978 c -0.671,-1.07 -1.35,-1.35 -2.14,-0.73 -0.17,0.059 -0.34,0.34 -0.62,0.62 a 7.49,7.49 0 0 1 -0.68,-0.62 3.227,3.227 0 0 0 0.45,-2.48 6.693,6.693 0 0 0 -1.35,-2.99 4.578,4.578 0 0 0 -1.07,-1.01 5.648,5.648 0 0 0 -1.18,-0.62 1.597,1.597 0 0 0 -1.13,-0.06 1.393,1.393 0 0 0 -0.9,0.45 c -0.79,0.73 -0.62,1.86 0.5,3.397 0.12,-0.62 0.17,-1.02 0.45,-1.18 a 1.376,1.376 0 0 1 1.19,-0.12 3.15,3.15 0 0 1 1.35,1.02 c 1.13,1.52 1.13,2.76 0.17,3.49 a 1.588,1.588 0 0 1 -1.52,0.06 5.308,5.308 0 0 1 -1.86,-1.52 c -0.51,-0.68 -0.9,-1.36 -1.3,-1.92 a 7.117,7.117 0 0 1 -0.62,-1.86 3.482,3.482 0 0 1 0.11,-1.699 7.22,7.22 0 0 1 0.74,-1.469 3.108,3.108 0 0 1 2.547,-0.85 4.459,4.459 0 0 1 3.22,1.86 7.55,7.55 0 0 1 1.698,5.097 c 0.34,-0.221 0.73,-0.221 1.41,0.11 a 3.032,3.032 0 0 1 1.46,1.19 4.62,4.62 0 0 1 0.34,4.73 c 1.19,-0.782 1.75,-1.07 3.05,-1.86 a 62.917,62.917 0 0 0 -10.94,-14.702 c -0.23,-1.019 -0.45,-1.52 -0.68,-2.547 A 71.036,71.036 0 0 1 184.894,62 c 0,1.07 0,1.698 -0.05,2.76 a 33.267,33.267 0 0 0 -1.86,-4.213 z"
         class="cls-5"
         style="fill:#ffffff;stroke-width:0.849305" /><path
         id="path85"
         d="m 186.592,68.726 a 2234.84,2234.84 0 0 0 -12.349,5.35 c 0.17,-0.96 0.221,-1.35 0.45,-2.37 3.398,-1.57 5.096,-2.42 8.63,-4.05 a 2.548,2.548 0 0 0 0.849,-0.85 3.813,3.813 0 0 0 0.23,-1.469 8.493,8.493 0 0 0 -0.23,-1.741 9.7,9.7 0 0 0 -0.73,-2.149 c 0,-0.85 -0.06,-1.63 -0.06,-2.48 0.119,0.23 0.34,0.51 0.569,0.85 0.23,0.34 0.501,0.849 0.85,1.58 a 7.253,7.253 0 0 1 1.018,3.27 4.39,4.39 0 0 1 -0.79,2.547 6.132,6.132 0 0 0 0.85,-0.45 c 0.34,-0.17 0.739,-0.45 1.189,-0.73 0.45,-0.28 0.85,-0.51 1.18,-0.68 0.332,-0.17 0.561,-0.331 0.85,-0.45 v 1.019 a 3.108,3.108 0 0 0 -1.19,2.25 c 0.34,0.85 0.51,1.3 0.79,2.15 -0.17,1.12 -0.28,1.698 -0.45,2.81 -0.645,-1.876 -0.985,-2.717 -1.656,-4.407 z"
         class="cls-5"
         style="fill:#ffffff;stroke-width:0.849305" /></g><path
       style="fill:#2f1b72;fill-opacity:1;stroke-width:0.890623"
       d="m 90.265859,285.25488 v -9.42577 h 70.575511 70.57552 v 9.42577 9.42579 H 160.84137 90.265859 Z m 68.521831,7.75864 c 0.3996,-0.1393 0.90515,-0.52586 1.12345,-0.85903 0.2183,-0.33316 1.16629,-2.76415 2.10665,-5.40219 l 1.70977,-4.79645 h -1.13748 -1.13747 l -0.72588,2.29754 c -0.39923,1.26365 -0.78766,2.45659 -0.86317,2.651 -0.0777,0.19989 -0.51742,-0.77275 -1.01218,-2.23862 l -0.87488,-2.59209 -1.10075,-0.0719 c -0.60541,-0.0395 -1.10073,0.0189 -1.10073,0.12974 0,0.11086 0.63695,1.92498 1.41546,4.03137 1.20004,3.24693 1.374,3.9086 1.14295,4.3475 -0.35952,0.68297 -0.6585,0.86321 -1.4391,0.86756 -0.57979,0.004 -0.64804,0.0883 -0.64804,0.80872 0,1.07842 0.94117,1.3846 2.5414,0.82676 z m -55.36536,-3.69057 c 1.18456,-0.95383 1.41173,-1.99916 1.43452,-6.60125 l 0.019,-3.82922 h -1.17823 -1.17822 v 3.90363 c 0,4.81853 -0.16916,5.27569 -1.95478,5.2829 -0.638608,0.003 -1.059781,-0.1618 -1.472774,-0.57479 -0.56886,-0.56886 -0.578398,-0.64466 -0.578398,-4.59507 v -4.01667 h -1.200707 -1.200696 l 0.08639,4.30052 c 0.08915,4.43755 0.25229,5.23601 1.236818,6.05309 0.767058,0.6366 2.140537,0.96542 3.630647,0.86921 1.21674,-0.0786 1.65158,-0.22479 2.35644,-0.79235 z m 28.7849,0.21407 c 0.66592,-0.49434 1.36096,-1.5892 1.14557,-1.80459 -0.0777,-0.0777 -0.53165,-0.20461 -1.0088,-0.28205 -0.71357,-0.11578 -0.93022,-0.0513 -1.22078,0.36356 -0.35517,0.50707 -1.34556,0.67325 -1.90238,0.31918 -0.1539,-0.0978 -0.38986,-0.46737 -0.52436,-0.82114 l -0.24456,-0.64323 h 2.58626 2.58625 v -0.60259 c 0,-1.28336 -0.52705,-2.65803 -1.31009,-3.41698 -1.00665,-0.97569 -2.79755,-1.20648 -4.10973,-0.52964 -1.10463,0.5698 -1.88515,2.12618 -1.88515,3.75905 0,1.99994 0.72979,3.30591 2.23862,4.00599 0.9127,0.42349 2.86035,0.23799 3.64915,-0.34756 z m -3.53133,-4.85788 c 0,-0.56094 0.75589,-1.30942 1.32237,-1.30942 0.42808,0 1.21239,0.76844 1.38294,1.35496 0.14788,0.50853 0.0957,0.5302 -1.27557,0.5302 -1.35911,0 -1.42974,-0.0284 -1.42974,-0.57574 z m 16.23984,5.29426 c 0.44112,-0.12651 1.05015,-0.46311 1.3534,-0.74801 l 0.55138,-0.51799 v 0.63019 c 0,0.59913 0.0581,0.63018 1.17823,0.63018 h 1.17821 v -4.00595 -4.00597 h -1.17821 -1.17823 l -0.01,0.88368 -0.009,0.88367 -0.35,-0.64507 c -0.49591,-0.91395 -1.50882,-1.35806 -3.09517,-1.35703 -2.29963,0.002 -3.60181,1.16192 -3.27266,2.91643 0.20426,1.0888 0.95092,1.64565 2.90521,2.16668 2.05109,0.54683 2.50717,1.07684 1.31629,1.52962 -0.87156,0.33137 -1.94325,0.0478 -2.23438,-0.59112 -0.21394,-0.46955 -0.35056,-0.51167 -1.17247,-0.36136 -0.51167,0.0936 -0.99349,0.23329 -1.07072,0.31051 -0.16656,0.16657 0.55538,1.32741 1.08396,1.74296 0.87827,0.69043 2.64563,0.92817 4.00404,0.53858 z m 1.00649,-4.3716 c -0.42926,-0.30542 -1.34855,-0.68243 -2.04286,-0.83782 -1.56741,-0.35077 -1.87948,-0.53794 -1.69564,-1.017 0.22359,-0.58268 1.92586,-0.50877 2.35379,0.10219 0.29443,0.42036 0.4558,0.45248 1.30942,0.2607 l 0.97358,-0.21875 v 1.15316 c 0,0.63425 -0.0265,1.1441 -0.0589,1.133 -0.0324,-0.0111 -0.41012,-0.27007 -0.83937,-0.57548 z m 8.18614,4.45187 c 0.6937,-0.13874 0.74347,-0.21231 0.67747,-1.00148 -0.0613,-0.73245 -0.15375,-0.85175 -0.66034,-0.85175 -0.5835,0 -0.58976,-0.0219 -0.65655,-2.29753 l -0.0674,-2.29753 h 0.59764 c 0.52592,0 0.59764,-0.099 0.59764,-0.82476 0,-0.72264 -0.0729,-0.82477 -0.58911,-0.82477 -0.56293,0 -0.58911,-0.0628 -0.58911,-1.41386 0,-0.77762 -0.0702,-1.41387 -0.15603,-1.41387 -0.0859,0 -0.61602,0.26958 -1.17822,0.59905 -0.89326,0.52349 -1.02219,0.70183 -1.02219,1.41387 0,0.65773 -0.0909,0.81481 -0.47129,0.81481 -0.38152,0 -0.47129,0.1571 -0.47129,0.82477 0,0.6553 0.0927,0.82476 0.45101,0.82476 0.41376,0 0.45755,0.2256 0.5302,2.73082 0.077,2.65679 0.0971,2.74623 0.74035,3.29902 0.69571,0.59789 1.04644,0.66262 2.26726,0.41845 z m 19.28531,-0.7072 c 3.17402,-2.42094 1.55932,-7.6089 -2.37239,-7.62238 -1.64145,-0.005 -2.8984,0.78174 -3.68708,2.30962 -0.38567,0.74716 -0.35481,2.86857 0.0558,3.83946 0.93349,2.20694 4.04172,2.9697 6.00361,1.4733 z m -3.474,-1.4935 c -0.87726,-0.87726 -0.92868,-2.88694 -0.0974,-3.80553 0.55822,-0.61683 1.83118,-0.57838 2.43864,0.0736 0.73327,0.78707 0.67764,2.8432 -0.0979,3.61876 -0.69836,0.69836 -1.61203,0.74442 -2.24335,0.11311 z m 37.07252,1.89725 c 0.74039,-0.37747 0.91043,-0.39715 1.01761,-0.11782 0.085,0.22132 0.48933,0.33537 1.1891,0.33537 0.91936,0 1.03716,-0.0549 0.88572,-0.41237 -0.0961,-0.22681 -0.21851,-1.63184 -0.27206,-3.12229 -0.12549,-3.49173 -0.17758,-3.69611 -1.08279,-4.24803 -1.66183,-1.01326 -4.72574,-0.40744 -5.39766,1.06728 -0.32542,0.71421 -0.24879,0.80656 0.81211,0.97873 0.64471,0.10463 0.93735,0.0243 1.32525,-0.36354 0.27379,-0.27381 0.66384,-0.49783 0.86677,-0.49783 0.63336,0 1.28055,0.46861 1.28055,0.92723 0,0.35448 -0.33957,0.51488 -1.7582,0.8305 -1.40405,0.31237 -1.87871,0.53438 -2.35644,1.10213 -0.74508,0.88548 -0.78222,2.02688 -0.0944,2.90129 0.89741,1.14087 2.1403,1.35563 3.58446,0.61935 z m -1.60896,-1.57838 c -0.74148,-0.74149 -0.14713,-1.42835 1.58554,-1.83228 0.61124,-0.1425 0.64802,-0.10478 0.64802,0.6648 0,1.29523 -1.38294,2.0181 -2.23356,1.16748 z m 17.66827,1.5603 c 1.1057,-0.56374 1.0604,-0.55869 1.0604,-0.11784 0,0.25966 0.27022,0.35347 1.01816,0.35347 h 1.01815 l -0.0814,-2.06189 c -0.22295,-5.64422 -0.39847,-5.99112 -3.10876,-6.14427 -1.89195,-0.1069 -2.88378,0.29457 -3.45457,1.39837 -0.44134,0.85344 -0.41498,0.89591 0.6646,1.07111 0.64471,0.10463 0.93736,0.0243 1.32524,-0.36354 0.80953,-0.80954 2.14733,-0.60055 2.14733,0.33544 0,0.47667 -0.17462,0.58318 -1.35496,0.82644 -0.74522,0.15358 -1.64013,0.4256 -1.98867,0.60447 -1.38829,0.71247 -1.78734,2.32496 -0.86543,3.49697 0.90516,1.15072 2.13994,1.35581 3.61995,0.60127 z m -1.62494,-1.68595 c -0.45651,-0.65176 -0.15027,-1.26808 0.73505,-1.47934 0.35984,-0.0859 0.83981,-0.21125 1.06663,-0.27864 0.33769,-0.10032 0.41238,0.0273 0.41238,0.70476 0,1.37214 -1.49317,2.08244 -2.21406,1.05322 z m -113.00204,0.0953 c 0.0268,-3.48031 0.47704,-4.77181 1.66367,-4.77181 0.96425,0 1.15002,0.59271 1.15002,3.66934 v 2.92871 h 1.17821 1.17823 v -2.95312 c 0,-3.20385 -0.25559,-4.24464 -1.20577,-4.91017 -0.74773,-0.52374 -2.28119,-0.48343 -3.21257,0.0844 -0.62489,0.38099 -0.76584,0.40252 -0.76584,0.11693 0,-0.25772 -0.27958,-0.35 -1.06041,-0.35 h -1.06039 v 4.00596 4.00596 h 1.06039 1.06041 z m 8.94043,-2.17971 v -4.00597 h -1.17821 -1.17823 v 4.00597 4.00595 h 1.17823 1.17821 z m 7.349,0.35347 c 0.75256,-1.94407 1.43077,-3.72642 1.50713,-3.96079 0.123,-0.37749 0.009,-0.41783 -0.99995,-0.35346 l -1.13881,0.0727 -0.8249,2.29752 c -0.45371,1.26365 -0.88345,2.29754 -0.95499,2.29754 -0.0715,0 -0.49597,-1.06039 -0.94318,-2.35643 l -0.81309,-2.35642 -1.11931,-2e-5 c -0.61563,-1e-5 -1.11931,0.0449 -1.11931,0.0997 0,0.0815 0.889,2.38912 2.84913,7.39553 0.18268,0.46658 0.35317,0.53348 1.20094,0.47127 l 0.98803,-0.0725 z m 12.24867,0.80527 c 0.0874,-3.16151 0.3085,-3.62239 1.61311,-3.36147 0.58524,0.11705 0.68113,0.041 0.94106,-0.74662 0.23762,-0.72001 0.23178,-0.91348 -0.0326,-1.081 -0.58554,-0.37094 -1.69332,-0.22276 -2.25095,0.30111 -0.46311,0.43508 -0.54539,0.45285 -0.54539,0.11782 0,-0.31051 -0.22585,-0.39455 -1.0604,-0.39455 h -1.0604 v 4.00597 4.00595 h 1.15849 1.15848 z m 41.43426,-0.33399 v -3.18119 h 0.82476 c 0.78547,0 0.82475,-0.0393 0.82475,-0.82476 0,-0.75562 -0.0581,-0.82477 -0.69302,-0.82477 -0.85716,0 -1.02841,-0.25144 -0.72135,-1.05908 0.20522,-0.53977 0.33401,-0.60637 0.92249,-0.47712 0.62255,0.13673 0.69875,0.0828 0.84876,-0.60009 0.20542,-0.93535 -0.0931,-1.15426 -1.58087,-1.15911 -1.53078,-0.005 -2.31319,0.68336 -2.48233,2.18387 -0.11012,0.97704 -0.19286,1.11153 -0.68375,1.11153 -0.48115,0 -0.55846,0.1142 -0.55846,0.82477 0,0.72264 0.0729,0.82476 0.58911,0.82476 h 0.58911 v 3.18119 3.1812 h 1.0604 1.0604 z m 12.76709,2.52424 c 1.36811,-0.85073 2.07851,-2.52023 2.07851,-4.8847 0,-1.62416 -0.0983,-2.10662 -0.64802,-3.1818 -1.04581,-2.04533 -1.43625,-2.22083 -5.1416,-2.31117 l -3.16487,-0.0772 v 5.57957 5.57957 l 3.00447,-0.0826 c 2.63618,-0.0725 3.11074,-0.14866 3.87151,-0.62172 z m -4.57844,-1.36049 c -0.0972,-0.10004 -0.17674,-1.75482 -0.17674,-3.67729 v -3.49539 h 1.14306 c 2.51872,0 3.33418,0.879 3.33418,3.59403 0,1.76449 -0.33945,2.91688 -0.95649,3.24711 -0.57951,0.31014 -3.12008,0.56203 -3.34401,0.33154 z m 10.23079,-0.83161 c 0.0735,-2.66247 0.11508,-2.87854 0.63495,-3.29903 0.67594,-0.54672 1.28888,-0.57409 1.7833,-0.0796 0.29692,0.29691 0.37031,0.95075 0.37031,3.29903 v 2.92872 h 1.0604 1.0604 v -3.17012 c 0,-1.95592 -0.10783,-3.40676 -0.28152,-3.78797 -0.57532,-1.26269 -2.50909,-1.66952 -3.90117,-0.82076 l -0.76584,0.46695 v -1.8817 -1.88169 h -1.06041 -1.06039 v 5.53765 5.53764 h 1.04066 1.04067 z m 16.69158,1.47172 c 0,-1.01368 0.10913,-1.47611 0.41331,-1.75139 0.38627,-0.34956 0.47388,-0.25945 1.33896,1.37735 l 0.92565,1.75138 h 1.1353 c 0.62442,0 1.13531,-0.0537 1.13531,-0.1193 0,-0.0657 -0.61933,-1.21024 -1.3763,-2.54358 l -1.3763,-2.42427 1.28899,-1.46237 1.289,-1.4624 h -1.30829 c -1.28318,0 -1.32898,0.0237 -2.38695,1.23309 l -1.07868,1.23309 v -2.76477 -2.76478 h -1.17822 -1.17823 v 5.53765 5.53764 h 1.17823 1.17822 z m -96.14295,-8.75537 v -0.94258 h -1.17821 -1.17823 v 0.94258 0.94258 h 1.17823 1.17821 z m 31.812,0 v -0.94258 h -1.17821 -1.17823 v 0.94258 0.94258 h 1.17823 1.17821 z M 93.329235,267.11025 v -4.71287 h 4.830712 4.830713 v -17.55552 -17.55551 h -4.830713 -4.830712 v -4.71289 -4.71288 h 17.319865 17.31987 v 4.71288 4.71289 h -4.83071 -4.83071 v 17.55551 17.55552 h 4.83071 4.83071 v 4.71287 4.7129 H 110.6491 93.329235 Z m 44.536795,0.004 v -4.70811 l 4.88963,-0.0637 4.88961,-0.0637 0.0604,-17.49661 0.0604,-17.4966 h -4.95003 -4.95005 v -4.71289 -4.71288 h 17.31987 17.31987 v 4.71288 4.71289 h -4.8307 -4.83072 v 17.55551 17.55551 h 4.83072 4.8307 v 4.71289 4.71289 h -17.3199 -17.31987 z m 60.03166,-17.14791 -0.0601,-21.85602 -9.24904,-0.0616 -9.24904,-0.0616 v -5.06362 -5.06362 h 26.15653 26.15653 v 5.06653 5.06635 h -9.30797 -9.30796 v 21.91493 21.91494 h -7.5394 -7.53941 z"
       id="path2" /><g
       id="g57"
       transform="translate(0,-10)"><text
         xml:space="preserve"
         id="text55"
         style="font-style:normal;font-variant:normal;font-weight:bold;font-stretch:normal;font-size:12px;line-height:0.6;font-family:Silkscreen;-inkscape-font-specification:'Silkscreen Bold';text-align:center;writing-mode:lr-tb;direction:ltr;white-space:pre;shape-inside:url(#rect55);display:inline;fill:#008463;fill-opacity:1;fill-rule:evenodd;stroke-width:18.0775;paint-order:markers fill stroke"
         transform="matrix(1.2611764,0,0,1.9486848,-39.305356,-309.82243)"><tspan
           x="111.61914"
           y="343.28555"
           id="tspan19"><tspan
             style="font-weight:normal;-inkscape-font-specification:Silkscreen"
             id="tspan18">ORGANized by</tspan></tspan></text><g
         id="g56"
         transform="translate(3.8809839)"><text
           xml:space="preserve"
           id="text55-4"
           style="font-style:normal;font-variant:normal;font-weight:bold;font-stretch:normal;font-size:12px;line-height:0.6;font-family:Silkscreen;-inkscape-font-specification:'Silkscreen Bold';text-align:center;writing-mode:lr-tb;direction:ltr;white-space:pre;shape-inside:url(#rect55-0);display:inline;fill:#008463;fill-opacity:1;fill-rule:evenodd;stroke-width:18.0775;paint-order:markers fill stroke"
           transform="matrix(1.5881248,0,0,2.6191963,-96.1092,-405.79449)"><tspan
             x="128.86914"
             y="343.28555"
             id="tspan20">BSSE 17</tspan></text><g
           id="g29"
           transform="matrix(0.11512712,0,0,0.11512712,8.5107724,202.59647)"><g
             id="g35"><path
               id="path29-4"
               style="fill:#00241f;fill-opacity:1"
               d="m 1089.3848,1500 -0.2559,388 c -0.1407,213.4 -0.044,388.5625 0.2168,389.25 0.3742,0.9858 17.6014,1.25 81.5078,1.25 h 81.0332 l -0.2519,-389.25 -0.25,-389.25 h -81 z m 248.4472,0 -0.2597,49.75 -0.2598,49.75 h 159.5098 c 144.0473,0 159.5097,0.1515 159.5097,1.5644 0,0.8606 -0.8833,3.6731 -1.9629,6.25 -1.0796,2.577 -8.9966,23.5856 -17.5917,46.6856 -8.5952,23.1 -21.2316,57.0054 -28.0821,75.3437 -10.0379,26.8709 -12.2219,33.6222 -11.2519,34.7911 0.6621,0.7977 9.9616,9.1942 20.666,18.6582 10.7044,9.464 37.9706,33.6841 60.5918,53.8222 38.5188,34.2905 41.2027,36.4805 42.2773,34.5 0.631,-1.1631 5.6715,-14.7152 11.2012,-30.1152 5.5297,-15.4 15.2729,-42.4 21.6504,-60 6.3776,-17.6 14.9138,-41.225 18.9687,-52.5 4.0551,-11.275 8.9321,-24.775 10.8379,-30 1.906,-5.225 6.6446,-18.275 10.5313,-29 3.8867,-10.725 11.1436,-30.7452 16.125,-44.4902 l 9.0566,-24.9922 -0.2598,-50.0078 L 1818.832,1500 h -240.5 z m -335,241.3027 -18.03121,15.8496 c -16.452,14.4614 -54.30734,47.8066 -102.41016,90.209 -10.20799,8.9983 -24.05795,21.1483 -30.7793,27 l -12.2207,10.6387 -0.0293,196.75 -0.0293,196.75 h 81.99414 81.99413 l 0.2559,-196.25 c 0.1402,-107.9375 0.031,-228.806 -0.2442,-268.5977 z m 512.834,238.336 c -0.6912,0.5737 -1.5538,2.0133 -1.916,3.2011 -0.6458,2.1177 -20.9898,56.7167 -60.4238,162.1602 -37.1955,99.4581 -47.9331,128.4081 -48.5723,130.9551 l -0.6387,2.5449 84.8575,-0.035 84.8593,-0.037 30,-25.6035 c 16.5,-14.0824 44.4,-37.8238 62,-52.7578 151.4691,-128.5262 153.0488,-129.8822 151.8106,-130.295 -0.8126,-0.2708 -27.6278,5.3677 -82.3106,17.3086 -6.325,1.3812 -16.45,3.5823 -22.5,4.8906 -6.0499,1.3083 -19.325,4.1935 -29.5,6.4122 -10.1749,2.2186 -24.9559,5.434 -32.8457,7.1464 -7.8898,1.7124 -14.5648,2.8961 -14.832,2.6289 -0.2672,-0.2673 -0.048,-1.3126 0.4863,-2.3222 0.5344,-1.0096 3.4503,-8.8109 6.4785,-17.336 3.0283,-8.525 12.0894,-33.6339 20.1368,-55.7988 8.0474,-22.165 14.4103,-40.66 14.1386,-41.0996 -0.2716,-0.4395 -4.2229,-1.0738 -8.7793,-1.4102 -4.5563,-0.3363 -25.8332,-2.001 -47.2832,-3.6992 -82.788,-6.5546 -103.8708,-7.9284 -105.166,-6.8535 z" /><path
               id="path26-8"
               style="fill:#005f52;fill-opacity:1;stroke-width:0.969884"
               d="M 921.48438,1500 A 92.483978,92.483978 0 0 0 829,1592.4844 a 92.483978,92.483978 0 0 0 92.48438,92.4843 92.483978,92.483978 0 0 0 92.48432,-92.4843 A 92.483978,92.483978 0 0 0 921.48438,1500 Z m -20.25977,62.0644 3.5293,3.5293 3.52734,3.5274 -11.67968,11.6816 -11.68164,11.6797 11.68164,11.6816 11.67968,11.6817 -3.52734,3.5273 -3.5293,3.5293 -15.20898,-15.209 -15.20899,-15.2109 15.20899,-15.209 z m 40.51953,0 15.20899,15.209 15.20898,15.211 -15.20898,15.2089 -15.21094,15.211 -3.52734,-3.5293 -3.52735,-3.5293 11.67969,-11.6817 11.67969,-11.6816 -11.67969,-11.6797 -11.68164,-11.6816 3.5293,-3.5274 z m 549.55666,132.1797 c -0.2383,0.7118 4.3735,23.7069 10.248,51.0996 5.8744,27.3928 11.0633,51.6785 11.5313,53.9688 0.6132,3.0012 0.2455,4.164 -1.3184,4.164 -1.1934,0 -28.0338,-11.838 -59.6465,-26.3066 -62.1642,-28.4515 -63.4442,-28.9853 -64.6796,-26.9863 -1.4866,2.4054 -11.8501,66.9547 -11.0743,68.9765 0.4148,1.0809 28.7518,14.8137 62.9707,30.5176 l 62.2168,28.5528 -2.8476,4.8242 c -1.5654,2.6531 -12.3276,17.688 -23.916,33.4121 -25.6111,34.7511 -28.2064,38.4518 -27.4844,39.1738 0.4448,0.4449 130.3408,10.761 358.6347,28.4844 15.278,1.186 14.4837,1.2588 12.0606,-1.1055 -13.4769,-13.1498 -326.3757,-289.7301 -326.6953,-288.7754 z" /></g></g></g></g></g><g
     id="g8-3"
     transform="matrix(1.4935572,0,0,1.4935572,1044.9273,366.79121)"
     inkscape:export-filename="Logo.png"
     inkscape:export-xdpi="96"
     inkscape:export-ydpi="96"><text
       xml:space="preserve"
       transform="matrix(0.83632596,0,0,1.2207482,981.72375,461.52792)"
       id="text6-6"
       style="font-style:normal;font-variant:normal;font-weight:bold;font-stretch:normal;font-size:353.8px;line-height:1.7;font-family:ThaleahFat;-inkscape-font-specification:'ThaleahFat Bold';text-align:center;writing-mode:lr-tb;direction:ltr;white-space:pre;shape-inside:url(#rect6-1);display:inline;fill:#00eeac;fill-opacity:1;fill-rule:evenodd;stroke:#00241f;stroke-width:15.292;stroke-linejoin:miter;stroke-dasharray:none;stroke-dashoffset:0;stroke-opacity:1;paint-order:markers fill stroke"><tspan
         x="-1505.6207"
         y="-372.73016"
         id="tspan21">26</tspan></text><g
       id="g7-1"
       transform="matrix(0.97975489,0,0,1.0208703,44.245585,-196.22579)"><rect
         style="fill:#008463;fill-opacity:1;fill-rule:evenodd;stroke:#00241f;stroke-width:6.31236;stroke-linejoin:miter;stroke-dasharray:none;stroke-dashoffset:0;stroke-opacity:1;paint-order:markers fill stroke"
         id="rect7-5"
         width="417.99948"
         height="70.256981"
         x="-459.98792"
         y="134.32191" /><text
         xml:space="preserve"
         transform="matrix(1.344895,0,0,1.344895,-809.41905,-206.03062)"
         id="text1-4"
         style="font-weight:500;font-size:96px;line-height:1.7;font-family:ThaleahFat;-inkscape-font-specification:'ThaleahFat Medium';text-align:center;writing-mode:lr-tb;direction:ltr;white-space:pre;shape-inside:url(#rect1-3);display:inline;fill:#00eeac;fill-opacity:1;fill-rule:evenodd;stroke:#00241f;stroke-width:3.03117;stroke-linejoin:miter;stroke-dasharray:none;stroke-dashoffset:0;stroke-opacity:1;paint-order:markers fill stroke"><tspan
           x="265.22266"
           y="300.18985"
           id="tspan22">INDOORS</tspan></text></g><g
       id="g6-2"
       transform="matrix(0.64698122,0,0,0.64698122,-168.94962,-24.969862)"><text
         xml:space="preserve"
         transform="matrix(0.55766409,0,0,0.55766409,-36.886655,28.178878)"
         id="text5-0"
         style="font-style:normal;font-variant:normal;font-weight:bold;font-stretch:normal;font-size:354.288px;line-height:1.7;font-family:Silkscreen;-inkscape-font-specification:'Silkscreen Bold';text-align:center;writing-mode:lr-tb;direction:ltr;white-space:pre;shape-inside:url(#rect5-59);display:inline;fill:#00241f;fill-opacity:1;fill-rule:evenodd;stroke:none;stroke-width:15.292;stroke-linejoin:miter;stroke-dasharray:none;stroke-dashoffset:0;stroke-opacity:1;paint-order:markers fill stroke"><tspan
           x="-600.6336"
           y="-161.60729"
           id="tspan24"><tspan
             style="font-family:ThaleahFat;-inkscape-font-specification:'ThaleahFat Bold'"
             id="tspan23">iit</tspan></tspan></text><text
         xml:space="preserve"
         transform="matrix(0.55766408,0,0,0.5556322,-24.618155,14.764098)"
         id="text8-9"
         style="font-style:normal;font-variant:normal;font-weight:bold;font-stretch:normal;font-size:354.288px;line-height:1.7;font-family:Silkscreen;-inkscape-font-specification:'Silkscreen Bold';text-align:center;writing-mode:lr-tb;direction:ltr;white-space:pre;shape-inside:url(#rect8-84);display:inline;fill:#00241f;fill-opacity:1;fill-rule:evenodd;stroke:none;stroke-width:15.292;stroke-linejoin:miter;stroke-dasharray:none;stroke-dashoffset:0;stroke-opacity:1;paint-order:markers fill stroke"><tspan
           x="-600.6336"
           y="-161.60729"
           id="tspan26"><tspan
             style="font-family:ThaleahFat;-inkscape-font-specification:'ThaleahFat Bold'"
             id="tspan25">iit</tspan></tspan></text><text
         xml:space="preserve"
         transform="matrix(0.55766409,0,0,0.55766409,-30.474093,21.885571)"
         id="text5-1-7"
         style="font-style:normal;font-variant:normal;font-weight:bold;font-stretch:normal;font-size:354.288px;line-height:1.7;font-family:Silkscreen;-inkscape-font-specification:'Silkscreen Bold';text-align:center;writing-mode:lr-tb;direction:ltr;white-space:pre;shape-inside:url(#rect5-5-0);display:inline;fill:#00eeac;fill-opacity:1;fill-rule:evenodd;stroke:none;stroke-width:15.292;stroke-linejoin:miter;stroke-dasharray:none;stroke-dashoffset:0;stroke-opacity:1;paint-order:markers fill stroke"><tspan
           x="-600.6336"
           y="-161.60729"
           id="tspan28"><tspan
             style="font-family:ThaleahFat;-inkscape-font-specification:'ThaleahFat Bold'"
             id="tspan27">iit</tspan></tspan></text></g><path
       sodipodi:type="star"
       style="fill:#00eeac;fill-opacity:1;fill-rule:evenodd;stroke:#00241f;stroke-width:11.2558;stroke-linejoin:miter;stroke-dasharray:none;stroke-dashoffset:0;stroke-opacity:1;paint-order:markers fill stroke"
       id="path7-3"
       inkscape:flatsided="true"
       sodipodi:sides="3"
       sodipodi:cx="-494.71292"
       sodipodi:cy="-200.89072"
       sodipodi:r1="88.849792"
       sodipodi:r2="44.424896"
       sodipodi:arg1="1.4668248"
       sodipodi:arg2="2.5140223"
       inkscape:rounded="0"
       inkscape:randomized="0.7"
       d="m -547.17603,-114.79988 27.29923,-101.41375 55.16301,-53.05881 z"
       inkscape:transform-center-x="-7.1465869"
       inkscape:transform-center-y="4.5847802"
       transform="matrix(-0.78235206,-0.20386956,-0.18530189,0.2591794,-747.7448,-214.78984)" /></g><g
     id="g271"
     transform="matrix(0.94603503,0,0,0.94603503,36.722693,-3.0900101)"><g
       id="g269-4"
       transform="matrix(0.61593816,0,0,0.21927042,-290.82278,535.10498)"><rect
         style="fill:#008463;fill-opacity:1;fill-rule:evenodd;stroke-width:17.4695;paint-order:markers fill stroke"
         id="rect269-2"
         width="597.77881"
         height="405.27582"
         x="575.30231"
         y="482.48926"
         ry="0" /><rect
         style="fill:#1a1a1a;fill-opacity:1;fill-rule:evenodd;stroke-width:16.3324;paint-order:markers fill stroke"
         id="rect269-1-7"
         width="606.04114"
         height="349.41058"
         x="571.38074"
         y="513.15808"
         ry="0" /><rect
         style="fill:#1a1a1a;fill-opacity:1;fill-rule:evenodd;stroke-width:17.5544;paint-order:markers fill stroke"
         id="rect271-7"
         width="574.08807"
         height="426.11768"
         x="587.77832"
         y="468.96555"
         ry="0" /><rect
         style="fill:#00eeac;fill-opacity:1;fill-rule:evenodd;stroke-width:16.4633;paint-order:markers fill stroke"
         id="rect270-9"
         width="589.44019"
         height="365.03186"
         x="579.14801"
         y="504.5278"
         ry="0" /></g><text
       xml:space="preserve"
       id="text55-4-9"
       style="font-style:normal;font-variant:normal;font-weight:bold;font-stretch:normal;font-size:32.2732px;line-height:0.6;font-family:Silkscreen;-inkscape-font-specification:'Silkscreen Bold';text-align:center;writing-mode:lr-tb;direction:ltr;white-space:pre;shape-inside:url(#rect55-0-3);display:inline;fill:#008463;fill-opacity:1;fill-rule:evenodd;stroke-width:18.0775;paint-order:markers fill stroke"
       transform="matrix(1.2430843,0,0,2.1222613,-63.123592,-48.501775)"><tspan
         x="139.14681"
         y="355.5445"
         id="tspan29">MAY 8 - 9</tspan></text></g><g
     id="g271-2"
     transform="matrix(0.94603503,0,0,0.94603503,41.050841,104.16055)"><g
       id="g269-4-8"
       transform="matrix(0.61593816,0,0,0.21927042,-295.39782,535.10498)"><rect
         style="fill:#008463;fill-opacity:1;fill-rule:evenodd;stroke-width:17.4695;paint-order:markers fill stroke"
         id="rect269-2-6"
         width="597.77881"
         height="405.27582"
         x="575.30231"
         y="482.48926"
         ry="0" /><rect
         style="fill:#1a1a1a;fill-opacity:1;fill-rule:evenodd;stroke-width:16.3324;paint-order:markers fill stroke"
         id="rect269-1-7-0"
         width="606.04114"
         height="349.41058"
         x="571.38074"
         y="513.15808"
         ry="0" /><rect
         style="fill:#1a1a1a;fill-opacity:1;fill-rule:evenodd;stroke-width:17.5544;paint-order:markers fill stroke"
         id="rect271-7-2"
         width="574.08807"
         height="426.11768"
         x="587.77832"
         y="468.96555"
         ry="0" /><rect
         style="fill:#00eeac;fill-opacity:1;fill-rule:evenodd;stroke-width:16.4633;paint-order:markers fill stroke"
         id="rect270-9-4"
         width="589.44019"
         height="365.03186"
         x="579.14801"
         y="504.5278"
         ry="0" /></g><text
       xml:space="preserve"
       id="text55-4-9-8"
       style="font-style:normal;font-variant:normal;font-weight:bold;font-stretch:normal;font-size:32.2732px;line-height:0.6;font-family:Silkscreen;-inkscape-font-specification:'Silkscreen Bold';text-align:center;writing-mode:lr-tb;direction:ltr;white-space:pre;shape-inside:url(#rect55-0-3-5);display:inline;fill:#008463;fill-opacity:1;fill-rule:evenodd;stroke-width:18.0775;paint-order:markers fill stroke"
       transform="matrix(1.2430843,0,0,2.1222613,-63.123592,-48.501775)"><tspan
         x="159.31756"
         y="355.5445"
         id="tspan30">ALL DAY</tspan></text></g><g
     id="g273"><g
       id="g269"
       transform="matrix(1.0599369,0,0,1.0599369,-55.370328,-53.578789)"><rect
         style="fill:#008463;fill-opacity:1;fill-rule:evenodd;stroke-width:16.7673;paint-order:markers fill stroke"
         id="rect269"
         width="597.77881"
         height="373.35199"
         x="575.30231"
         y="500.73157"
         ry="0" /><rect
         style="fill:#1a1a1a;fill-opacity:1;fill-rule:evenodd;stroke-width:16.3324;paint-order:markers fill stroke"
         id="rect269-1"
         width="606.04114"
         height="349.41058"
         x="571.38074"
         y="513.15808"
         ry="0" /><rect
         style="fill:#1a1a1a;fill-opacity:1;fill-rule:evenodd;stroke-width:16.5884;paint-order:markers fill stroke"
         id="rect271"
         width="574.08807"
         height="380.51031"
         x="587.77832"
         y="496.32901"
         ry="0" /><rect
         style="fill:#00eeac;fill-opacity:1;fill-rule:evenodd;stroke-width:16.4633;paint-order:markers fill stroke"
         id="rect270"
         width="589.44019"
         height="365.03186"
         x="579.14801"
         y="504.5278"
         ry="0" /></g><g
       id="g272"
       transform="translate(-1.0201111,-7.2897868)"><text
         xml:space="preserve"
         id="text267"
         style="font-style:normal;font-variant:normal;font-weight:normal;font-stretch:normal;font-size:21.3333px;line-height:1.6;font-family:Silkscreen;-inkscape-font-specification:Silkscreen;text-align:start;writing-mode:lr-tb;direction:ltr;white-space:pre;shape-inside:url(#rect267);display:inline;fill:#00241f;fill-opacity:1;fill-rule:evenodd;stroke-width:18.0775;paint-order:markers fill stroke"
         transform="translate(505.21087,-27.531695)"><tspan
           x="67.691406"
           y="544.97874"
           id="tspan32"><tspan
   style="font-weight:bold;-inkscape-font-specification:'Silkscreen Bold'"
   id="tspan31">TEAM BASED EVENTS:</tspan>
</tspan><tspan
           x="67.691406"
           y="579.11204"
           id="tspan33">* Short-pitch Cricket
</tspan><tspan
           x="67.691406"
           y="613.24534"
           id="tspan34">* valorant
</tspan><tspan
           x="67.691406"
           y="647.37864"
           id="tspan35">* Cards 29
</tspan><tspan
           x="67.691406"
           y="681.51194"
           id="tspan36">* Dumb Charedes
</tspan><tspan
           x="67.691406"
           y="715.64524"
           id="tspan37">* Carrom
</tspan><tspan
           x="67.691406"
           y="749.77854"
           id="tspan38">
</tspan><tspan
           x="67.691406"
           y="783.91184"
           id="tspan40"><tspan
   style="font-weight:bold"
   id="tspan39">Casual Games:</tspan>
</tspan><tspan
           x="67.691406"
           y="818.04515"
           id="tspan41">* UNO No mercy
</tspan><tspan
           x="67.691406"
           y="852.17845"
           id="tspan42">* LUDO
</tspan></text><text
         xml:space="preserve"
         id="text267-9"
         style="font-style:normal;font-variant:normal;font-weight:normal;font-stretch:normal;font-size:21.3333px;line-height:1.6;font-family:Silkscreen;-inkscape-font-specification:Silkscreen;text-align:start;writing-mode:lr-tb;direction:ltr;white-space:pre;shape-inside:url(#rect267-2);display:inline;fill:#00241f;fill-opacity:1;fill-rule:evenodd;stroke-width:18.0775;paint-order:markers fill stroke"
         transform="translate(848.3267,-27.531695)"><tspan
           x="67.691406"
           y="544.97874"
           id="tspan44"><tspan
   style="font-weight:bold;-inkscape-font-specification:'Silkscreen Bold'"
   id="tspan43">FUN NEVER ENDS:</tspan>
</tspan><tspan
           x="67.691406"
           y="579.11204"
           id="tspan45">* WIRE LOOP
</tspan><tspan
           x="67.691406"
           y="613.24534"
           id="tspan46">* Rubik's cube
</tspan><tspan
           x="67.691406"
           y="647.37864"
           id="tspan47">* dart
</tspan><tspan
           x="67.691406"
           y="681.51194"
           id="tspan48">* speed-typing
</tspan><tspan
           x="67.691406"
           y="715.64524"
           id="tspan49">
</tspan><tspan
           x="67.691406"
           y="749.77854"
           id="tspan51"><tspan
   style="font-weight:bold"
   id="tspan50">Solo Showdown:</tspan>
</tspan><tspan
           x="67.691406"
           y="783.91184"
           id="tspan54">* Chess
</tspan><tspan
           x="67.691406"
           y="818.04515"
           id="tspan55">* pucket
</tspan><tspan
           x="67.691406"
           y="852.17845"
           id="tspan56">* Scrabble
</tspan><tspan
           x="67.691406"
           y="886.31175"
           id="tspan57">* Musical Chairs
</tspan></text></g></g></svg>
