<svg xmlns="http://www.w3.org/2000/svg" width="200" height="300" viewBox="0 0 200 300" shape-rendering="crispEdges">
  <defs>
    <!-- Dither Patterns -->
    <pattern id="dither1" width="4" height="4" patternUnits="userSpaceOnUse">
      <rect width="4" height="4" fill="#004650" />
      <rect x="1" y="0" width="1" height="1" fill="#00556c" />
      <rect x="0" y="1" width="1" height="1" fill="#00556c" />
      <rect x="2" y="1" width="1" height="1" fill="#00556c" />
      <rect x="1" y="2" width="1" height="1" fill="#00556c" />
      <rect x="3" y="2" width="1" height="1" fill="#00556c" />
      <rect x="0" y="3" width="4" height="1" fill="#00556c" />
      <rect x="0" y="3" width="1" height="1" fill="#004650" />
    </pattern>
    <pattern id="dither2" width="4" height="4" patternUnits="userSpaceOnUse">
      <rect width="4" height="4" fill="#00556c" />
      <rect x="1" y="0" width="1" height="1" fill="#006488" />
      <rect x="0" y="1" width="1" height="1" fill="#006488" />
      <rect x="2" y="1" width="1" height="1" fill="#006488" />
      <rect x="1" y="2" width="1" height="1" fill="#006488" />
      <rect x="3" y="2" width="1" height="1" fill="#006488" />
      <rect x="0" y="3" width="4" height="1" fill="#006488" />
      <rect x="0" y="3" width="1" height="1" fill="#00556c" />
    </pattern>
    <pattern id="dither3" width="4" height="4" patternUnits="userSpaceOnUse">
      <rect width="4" height="4" fill="#006488" />
      <rect x="1" y="0" width="1" height="1" fill="#0073a3" />
      <rect x="0" y="1" width="1" height="1" fill="#0073a3" />
      <rect x="2" y="1" width="1" height="1" fill="#0073a3" />
      <rect x="1" y="2" width="1" height="1" fill="#0073a3" />
      <rect x="3" y="2" width="1" height="1" fill="#0073a3" />
      <rect x="0" y="3" width="4" height="1" fill="#0073a3" />
      <rect x="0" y="3" width="1" height="1" fill="#006488" />
    </pattern>
    <pattern id="dither4" width="4" height="4" patternUnits="userSpaceOnUse">
      <rect width="4" height="4" fill="#0073a3" />
      <rect x="1" y="0" width="1" height="1" fill="#0083bf" />
      <rect x="0" y="1" width="1" height="1" fill="#0083bf" />
      <rect x="2" y="1" width="1" height="1" fill="#0083bf" />
      <rect x="1" y="2" width="1" height="1" fill="#0083bf" />
      <rect x="3" y="2" width="1" height="1" fill="#0083bf" />
      <rect x="0" y="3" width="4" height="1" fill="#0083bf" />
      <rect x="0" y="3" width="1" height="1" fill="#0073a3" />
    </pattern>
  </defs>

  <!-- Background Bands -->
  <rect width="200" height="60" y="0" fill="#004650" />
  <rect width="200" height="60" y="60" fill="#00556c" />
  <rect width="200" height="60" y="120" fill="#006488" />
  <rect width="200" height="60" y="180" fill="#0073a3" />
  <rect width="200" height="60" y="240" fill="#0083bf" />

  <!-- Dither Junctions -->
  <rect width="200" height="8" y="56" fill="url(#dither1)" />
  <rect width="200" height="8" y="116" fill="url(#dither2)" />
  <rect width="200" height="8" y="176" fill="url(#dither3)" />
  <rect width="200" height="8" y="236" fill="url(#dither4)" />

  <!-- Pixel Clouds -->
  <g transform="translate(30, 40) scale(0.6)" opacity="0.4">
    <rect x="8" y="2" width="12" height="2" fill="#ffffff" />
    <rect x="4" y="4" width="20" height="2" fill="#ffffff" />
    <rect x="2" y="6" width="26" height="4" fill="#ffffff" />
  </g>
  <g transform="translate(130, 100) scale(0.5)" opacity="0.7">
    <rect x="10" y="2" width="6" height="2" fill="#ffffff" />
    <rect x="6" y="4" width="14" height="2" fill="#ffffff" />
    <rect x="4" y="6" width="18" height="2" fill="#ffffff" />
    <rect x="2" y="8" width="20" height="4" fill="#ffffff" />
  </g>
  <g transform="translate(50, 210) scale(0.7)" opacity="0.5">
    <rect x="8" y="2" width="12" height="2" fill="#ffffff" />
    <rect x="4" y="4" width="20" height="2" fill="#ffffff" />
    <rect x="2" y="6" width="26" height="4" fill="#ffffff" />
  </g>
</svg>
